<?xml version="1.0" standalone="no"?>
<!DOCTYPE svg PUBLIC "-//W3C//DTD SVG 1.1//EN" "http://www.w3.org/Graphics/SVG/1.1/DTD/svg11.dtd" >
<svg xmlns="http://www.w3.org/2000/svg" xmlns:xlink="http://www.w3.org/1999/xlink" version="1.1">
<metadata></metadata>
<defs>
<font id="nabanashadow_bold" horiz-adv-x="620" >
<font-face units-per-em="2048" ascent="1638" descent="-410" />
<missing-glyph horiz-adv-x="965" />
<glyph horiz-adv-x="468" />
<glyph horiz-adv-x="468" />
<glyph unicode="&#xd;" horiz-adv-x="1199" />
<glyph unicode=" "  horiz-adv-x="965" />
<glyph unicode="&#x09;" horiz-adv-x="965" />
<glyph unicode="&#xa0;" horiz-adv-x="965" />
<glyph unicode="," horiz-adv-x="485" d="M-79 -205q0 38 13 66t29.5 53t29.5 48t13 50q0 44 -19 85t-19 84q0 53 25 94t63 69t86 42.5t95 14.5q79 0 143.5 -35t105.5 -103q79 -44 115.5 -128.5t36.5 -172.5q0 -82 -26.5 -162.5t-76 -146.5t-121.5 -106.5t-159 -40.5q-67 0 -131.5 29t-88.5 96q-50 23 -82 65.5 t-32 98.5zM29 -205q0 -44 42.5 -60t80.5 -16q64 0 115.5 32t86.5 83.5t54 113t19 119.5q0 91 -45.5 158.5t-144.5 67.5q-23 0 -51 -7.5t-51.5 -20.5t-39.5 -33.5t-16 -50.5q0 -44 17.5 -84.5t17.5 -84.5t-13 -75t-29 -55.5t-29.5 -45t-13.5 -41.5z" />
<glyph unicode="." horiz-adv-x="476" d="M-50 123q0 138 74.5 215t215.5 77q76 0 146 -32t108 -105q73 -38 105.5 -107t32.5 -148q0 -138 -77.5 -213.5t-215.5 -75.5q-76 0 -146 30.5t-108 103.5q-73 38 -104 108.5t-31 146.5zM59 123q0 -179 178 -179q181 0 181 185q0 178 -178 178q-181 0 -181 -184z" />
<glyph unicode="0" horiz-adv-x="1342" d="M-79 752q0 167 47 344t140.5 321.5t235.5 238.5t335 94q88 0 156.5 -15t127 -45.5t111 -76t114.5 -106.5q32 -32 65.5 -64.5t63.5 -70.5q53 -70 92 -155t65.5 -175.5t39.5 -182.5t13 -180q0 -173 -46.5 -335.5t-140.5 -289.5t-235.5 -204.5t-332.5 -77.5 q-97 0 -169.5 14.5t-135.5 44t-120 76t-125 113.5q-164 158 -232.5 331t-68.5 401zM29 752q0 -149 38 -286.5t117 -246t199 -173t284 -64.5q167 0 290 69t203.5 183t118.5 257.5t38 292.5q0 140 -38 292.5t-116 276.5t-197.5 206t-286.5 82t-290 -84.5t-202 -216.5 t-118.5 -288.5t-39.5 -299.5zM374 810q0 70 12 175.5t45.5 202t93.5 167t154 70.5q91 0 146.5 -72t87.5 -170t43.5 -201.5t11.5 -171.5q0 -67 -11.5 -173.5t-45 -206t-92 -171.5t-152.5 -72q-91 0 -148 73.5t-89 172.5t-44 206t-12 171zM585 708q0 -99 17.5 -210.5 t58.5 -202.5h6q59 0 95.5 64.5t58.5 151t30.5 172.5t8.5 127q0 97 -16 205t-57 196h-3q-61 0 -99 -61.5t-60 -144.5t-31 -168t-9 -129z" />
<glyph unicode="1" d="M-108 1390q0 59 26 96.5t76 69.5q38 23 86.5 58.5t99.5 67.5t103.5 54t99.5 22q79 0 148 -27.5t104 -103.5q79 -38 108 -114t29 -158q0 -284 -5.5 -562t-5.5 -562q0 -85 -1.5 -167t-26.5 -146t-83.5 -103.5t-169.5 -39.5q-38 0 -79 7t-77.5 23.5t-66 42.5t-43.5 64 q-50 23 -82.5 65.5t-32.5 101.5q0 257 -1 509t4 509q-53 35 -84 94q-56 29 -91 82t-35 117zM0 1390q0 -47 38 -82t85 -35q23 0 46.5 7t47.5 19q-9 -293 -10.5 -581t-1.5 -580q0 -94 39.5 -123.5t129.5 -29.5q50 0 101.5 17.5t59.5 76.5q18 108 16.5 223.5t-1.5 227.5 q3 234 7.5 465t4.5 462q0 97 -38 145t-141 48q-32 0 -77.5 -22t-92 -52.5t-90.5 -63t-70 -49.5q-23 -15 -38 -29.5t-15 -43.5z" />
<glyph unicode="2" horiz-adv-x="1012" d="M-79 132q0 108 73 190q85 97 167 194.5t145 204.5t102.5 225.5t42.5 255.5q-32 -15 -53 -38t-42.5 -46.5t-49.5 -41t-75 -17.5q-59 0 -99.5 31t-64.5 80q-59 23 -92.5 83.5t-33.5 118.5q0 102 63 178.5t155.5 126t197.5 74.5t187 25q135 0 219.5 -48.5t166.5 -141.5 q15 -15 32.5 -28t32.5 -28q70 -70 102 -168t32 -195q0 -94 -30.5 -203.5t-79 -219t-105.5 -210.5t-109 -177q76 0 155 -31t114 -107q120 -64 120 -196q0 -59 -23.5 -101t-63 -71t-91 -44t-103.5 -15q-149 0 -298.5 -1.5t-298.5 -1.5q-79 0 -158 31t-114 107 q-123 62 -123 205zM29 132q0 -76 60.5 -104t124.5 -28q149 0 298 1.5t298 1.5q59 0 116 29t57 97q0 64 -54 92t-110 28h-220.5t-221.5 -3q82 64 177.5 193t175.5 278t133 298t53 255q0 170 -98 284t-274 114q-59 0 -143.5 -17.5t-162 -56t-133 -92.5t-55.5 -130 q0 -32 19 -67t60 -35q23 0 43.5 23.5t48.5 52.5t67.5 52.5t94.5 23.5q91 0 133.5 -63t42.5 -145q0 -152 -41 -280.5t-110 -244.5t-155 -224t-177 -216q-47 -56 -47 -117z" />
<glyph unicode="3" horiz-adv-x="1073" d="M-79 298q0 50 19 95.5t51 79t76 54t97 20.5q138 0 202 -123q73 -32 105 -108q38 6 60 29.5t35 54t17.5 65.5t4.5 65l-3 11q-50 15 -91 15q-20 0 -39 -4.5t-40 -4.5q-59 0 -102.5 32t-66.5 82q-61 23 -96.5 89t-35.5 134q0 50 17.5 87.5t45.5 70t63 58.5t70 56 q-73 0 -127 20.5t-86 93.5q-59 23 -91 80t-32 116q0 73 36.5 124t100.5 78q41 18 112.5 32t149.5 23t151 15t120 6q53 0 114 -6t116.5 -23.5t104 -49.5t74.5 -85q59 -32 94 -87.5t35 -123.5q0 -47 -25 -104t-61.5 -112.5t-76 -105t-68.5 -84.5q23 -20 42 -44t43 -47 q20 -20 40.5 -35t38.5 -35q70 -79 105 -183t35 -206q0 -167 -55.5 -287t-153.5 -196t-231 -111.5t-285 -35.5q-123 0 -249 53t-196 155q-76 56 -120 133t-44 174zM29 298q0 -76 36.5 -133t95 -95t129 -57t134.5 -19q132 0 244.5 28t196 89.5t131.5 161t48 242.5 q0 97 -32 180t-90.5 146t-139 98t-179.5 35q35 26 98 92t121.5 140.5t102 148t43.5 117.5q0 59 -35 91t-86 48t-106.5 20t-96.5 4t-110 -4t-142 -11.5t-139 -20.5t-101 -31t-52.5 -39.5t-17.5 -62.5q0 -38 22 -69t63 -31q111 0 222 20.5t225 23.5q-47 -102 -98 -185.5 t-139 -153.5q-23 -18 -49.5 -38.5t-49.5 -42.5t-39.5 -48t-16.5 -58q0 -41 23.5 -83.5t67.5 -42.5q20 0 39.5 4.5t39.5 4.5q53 0 107 -15t98 -44t71.5 -74.5t27.5 -103.5q0 -56 -11.5 -114.5t-41 -105.5t-76 -76t-114.5 -29q-73 0 -105 36.5t-54 80.5t-47 80.5t-83 36.5 q-59 0 -97 -41t-38 -100z" />
<glyph unicode="4" horiz-adv-x="1126" d="M-79 685q0 23 13 94.5t33.5 167t45.5 202t48.5 201.5t44 167t32.5 95q35 76 108 108.5t152 32.5q73 0 146 -29.5t108 -99.5q32 64 104 92t139 28q76 0 148 -34t107 -104q64 -32 96.5 -89t32.5 -127q0 -161 -12 -322t-15 -322q41 -29 60 -73t19 -94q0 -53 -23.5 -99.5 t-64.5 -78.5l-2 -401q0 -56 -28 -98t-70.5 -70t-93.5 -42.5t-101 -14.5q-76 0 -140.5 29t-99.5 99q-61 29 -89 82t-37 114.5t-6 127.5t3 121l-172 -3q-47 0 -101 3t-105.5 17.5t-92.5 44t-64 79.5q-59 26 -91 79t-32 117zM29 685q0 -41 17.5 -64.5t44 -35.5t60.5 -16t63 -7 q41 -3 79 -3h79q82 0 160.5 1.5t157.5 1.5q0 -94 -1 -186t-1 -186q0 -47 4 -85t19 -64t47 -41t85 -15q26 0 56.5 7.5t60 20.5t48.5 36.5t19 52.5l6 474q41 3 64.5 35.5t23.5 70.5t-20.5 65.5t-61.5 27.5q3 181 14.5 360t11.5 357q0 76 -51 109.5t-119 33.5q-50 0 -98 -20 t-60 -76q-38 -184 -36.5 -379t-4.5 -382q-61 -6 -122.5 -8.5t-125.5 -2.5l-56 2q32 129 60 256.5t60 258.5q15 59 32.5 127.5t17.5 127.5q0 32 -16 51t-41 32t-54.5 17.5t-52.5 4.5q-44 0 -91 -14.5t-70 -58.5q-9 -18 -26.5 -85t-41 -159t-48 -197.5t-45 -197.5t-34 -161 t-13.5 -86z" />
<glyph unicode="5" horiz-adv-x="1100" d="M-50 878q0 146 15 291t38 291t89 207.5t215 67.5q76 3 149.5 3h149.5h93q61 0 133 -4.5t138 -19t118.5 -45.5t75.5 -83q53 -26 86.5 -74.5t33.5 -110.5q0 -76 -33.5 -119.5t-86 -65.5t-117 -26.5t-125.5 -4.5h-138q44 -15 76 -32.5t58.5 -39.5t51.5 -46.5t57 -57.5 q123 -120 183 -242.5t60 -301.5q0 -140 -50 -266t-139 -221t-212 -150.5t-266 -55.5q-102 0 -216.5 44t-193.5 111q-18 15 -31 32.5t-30 34.5l-69 69t-53 66t-33.5 76t-11.5 102q0 94 64.5 154t154.5 60q61 0 111 -31t74 -89q32 -15 58 -38.5t41 -52.5l15 -3q35 0 60 29.5 t38 70.5t19 83t6 69q0 23 -1.5 46.5t-4.5 46.5q-41 -9 -76 -26t-69 -35t-72 -31t-82 -13q-67 0 -133 32t-95 100q-59 29 -91 80t-32 119zM59 881q0 -64 40.5 -92t99.5 -28q44 0 83.5 17.5t79 36.5t80.5 36.5t88 17.5q59 0 95 -31t56.5 -77.5t26.5 -100.5t6 -101 q0 -53 -12 -116t-38 -117t-70 -90.5t-111 -36.5q-73 0 -112.5 33.5t-67.5 73t-51.5 73.5t-67.5 34q-47 0 -79 -29.5t-32 -76.5q0 -79 41 -139t104 -101t139 -63t143 -22q120 0 222.5 47t177 129t115.5 188.5t41 224.5q0 97 -26 191.5t-82 169t-136.5 121.5t-191.5 47 q-102 0 -199 -41l21 331q70 6 141.5 6h142.5h190q50 0 102.5 26t52.5 85t-47 80.5t-94 27.5q-73 12 -144.5 12h-144.5h-284q-61 0 -103.5 -4.5t-72 -23.5t-47 -55.5t-26.5 -101.5q-23 -140 -36 -280.5t-13 -280.5z" />
<glyph unicode="6" horiz-adv-x="1164" d="M-79 532q0 155 54 332.5t146.5 341t215 298t263.5 205.5q35 18 74.5 29.5t80.5 11.5q70 0 136 -34t95 -101q50 -23 83.5 -68.5t33.5 -104.5q0 -41 -16 -73t-41 -58.5t-54 -48t-56 -48.5q-32 -32 -61 -65.5t-53 -68.5q53 -12 92.5 -29.5t71.5 -41t61.5 -54t67.5 -66.5 q59 -56 102.5 -109.5t71.5 -112t42.5 -126t14.5 -152.5q0 -135 -58.5 -247.5t-152 -194.5t-215 -127t-250.5 -45q-123 0 -238.5 41t-209.5 123q-18 15 -32 33.5t-32 36.5t-37 34t-36 33q-85 85 -124.5 209t-39.5 247zM29 532q0 -120 38 -220.5t108.5 -172.5t168.5 -113 t221 -41q105 0 207.5 37t183 104t130 160.5t49.5 205.5q0 97 -29 184.5t-83.5 156t-135 109.5t-182.5 41q-120 0 -237 -56q35 97 70 171.5t79 136t101 120t133 122.5q15 15 28 29.5t13 38.5q0 50 -48 73t-89 23q-50 0 -108 -29q-123 -61 -236 -187t-197.5 -279.5 t-134.5 -316t-50 -297.5zM386 486q0 84 9 166q41 35 92 57t107 22q50 0 86.5 -24.5t60 -64t35 -85t11.5 -89.5q0 -50 -9 -98t-30.5 -86t-61 -61.5t-98.5 -23.5q-61 0 -100.5 26.5t-61.5 67.5t-31 92t-9 101zM597 345.5q0 -17.5 6 -38.5q26 3 42 20.5t23.5 41t9 51.5t1.5 48 q0 12 -1.5 23.5t-4.5 26.5q-41 -9 -73 -29q-3 -26 -3 -53v-53v-37.5z" />
<glyph unicode="7" horiz-adv-x="991" d="M-108 1492q0 82 38 129t98 70t131.5 29t138.5 6h112q41 0 83 1.5t83 1.5q53 0 122 -3t134.5 -19t118.5 -46.5t79 -89.5q123 -64 123 -202q0 -38 -12 -98t-28 -124t-33.5 -125.5t-29.5 -102.5q26 -32 38 -62q56 -23 86.5 -70t30.5 -105q0 -61 -24.5 -104t-65.5 -69 t-92.5 -38t-103.5 -15q-38 -135 -70.5 -267.5t-81.5 -264.5q-32 -88 -107 -124.5t-163 -36.5q-79 0 -158 32t-111 108q-56 26 -89.5 76t-33.5 109q0 26 15 78.5t34 111t38 114.5t27 85q-41 15 -73 42.5t-49 68.5q-56 23 -86.5 70t-30.5 109q0 73 29 116.5t76 65.5t105.5 28 t113.5 6h59q15 50 25 98t25 98h-138q-76 0 -155 25t-111 104q-117 55 -117 184zM0 1492q0 -38 19 -58.5t49.5 -30.5t66 -13t64.5 -3h35q70 0 140.5 4.5t140.5 4.5l56 -3q-26 -132 -58.5 -259.5t-64.5 -258.5h-179q-29 0 -61 -1.5t-58.5 -13.5t-42.5 -32.5t-16 -60.5 q0 -35 22 -56t54 -31t70 -13t73 -3h79q-9 -32 -36.5 -120t-58.5 -184.5t-55.5 -177t-24.5 -94.5q0 -32 19 -54t45 -35.5t57 -19t57 -5.5q50 0 99.5 17.5t70.5 69.5q56 146 92 300t80 303q32 0 76 1.5t85 12t69 35t28 71.5q0 59 -48.5 76.5t-97.5 17.5q-15 0 -28 -1.5 t-25 -1.5q12 44 36.5 130t49.5 178.5t44 174t19 117.5q0 53 -41 83.5t-96.5 43.5t-115.5 16t-95 3h-196q-76 0 -150.5 -1.5t-145.5 -16.5q-44 -9 -73 -35t-29 -76z" />
<glyph unicode="8" horiz-adv-x="1006" d="M-79 392q0 120 49.5 225.5t117.5 198.5q-64 79 -114 180t-50 204q0 120 51 223.5t134.5 181t192 123t225.5 45.5q97 0 193 -29.5t166 -99.5q18 -18 34 -38t34 -38q20 -20 39 -35t37 -35q82 -94 121.5 -218t39.5 -247q0 -132 -32.5 -243t-81.5 -231q82 -123 82 -264 q0 -114 -47 -209t-126 -163.5t-180 -106.5t-209 -38q-161 0 -268 60t-212 171q-47 50 -83.5 88t-61.5 80t-38 93.5t-13 121.5zM29 392q0 -91 41 -165.5t107 -127t149 -80.5t168 -28t167 29.5t146.5 83.5t102.5 128.5t38 165.5q0 67 -26.5 131.5t-70.5 117.5q50 123 89.5 237 t39.5 251q0 105 -27.5 202t-85 168.5t-142 115.5t-198.5 44q-94 0 -183 -36.5t-158 -99.5t-111.5 -148t-42.5 -181q0 -47 17.5 -100t45.5 -102.5t63 -95t67 -77.5q-70 -97 -133 -203.5t-63 -229.5zM372 395q0 59 22 123t57 114q53 -47 104 -124.5t51 -150.5 q0 -47 -29.5 -80.5t-79.5 -33.5q-64 0 -94.5 46.5t-30.5 105.5zM380 1226q0 26 6 55.5t19 55.5t34 43.5t53 17.5q41 0 68.5 -26t43.5 -65.5t23.5 -83.5t7.5 -76q0 -67 -13 -133t-28 -133q-38 32 -76 70t-69 82t-50 92t-19 101z" />
<glyph unicode="9" horiz-adv-x="1167" d="M-79 1129q0 135 58.5 247.5t153.5 194.5t218 127.5t249 45.5q161 0 285 -58.5t227 -175.5q18 -20 39.5 -35t39.5 -38q76 -97 117 -214t41 -237q0 -155 -53 -332t-145 -342.5t-216.5 -300t-264.5 -204.5q-35 -18 -74.5 -29.5t-80.5 -11.5q-67 0 -137.5 33.5t-96.5 101.5 q-53 23 -85 68.5t-32 106.5q0 41 16 73t41 58.5t55.5 48.5t57.5 48q64 59 117 135q-56 12 -94 29.5t-70 42t-63 54t-72 64.5q-20 18 -40.5 35.5t-38.5 37.5q-76 85 -114 200.5t-38 226.5zM29 1129q0 -97 29.5 -184.5t85 -156t136 -109.5t182.5 -41q120 0 237 55 q-35 -97 -71.5 -169.5t-80.5 -135.5t-99.5 -120t-134.5 -125q-15 -15 -28 -29.5t-13 -37.5q0 -50 48.5 -73t89.5 -23q29 0 56.5 8.5t51.5 20.5q126 59 238.5 183t197.5 279t134.5 319t49.5 298q0 120 -38 221t-108 174t-169.5 112.5t-222.5 39.5q-105 0 -206 -36.5 t-183 -103.5t-132 -160.5t-50 -205.5zM389 1153q0 50 9 99.5t31 87.5t61 61.5t98 23.5q61 0 101 -26.5t63 -67.5t32 -92t9 -104q0 -41 -3 -83.5t-9 -83.5q-41 -35 -92 -57t-107 -22q-50 0 -86.5 25t-59.5 64.5t-35 85t-12 89.5zM603 1025q0 -10 3 -24q38 3 73 29 q3 26 4.5 52.5t1.5 52.5q0 20 -1.5 38t-4.5 38q-29 -3 -44 -19t-22 -41t-8.5 -51.5t-1.5 -49.5v-25z" />
<glyph unicode="A" horiz-adv-x="1339" d="M-138 99q0 26 10.5 67.5t25 85t30.5 86t25 69.5q-58 52 -58 134q0 85 49.5 143.5t125.5 82.5q70 208 139 417t163 408q41 88 117 131.5t172 43.5q85 0 165.5 -38t127.5 -114q41 -23 70 -60t50 -80q47 -99 82 -205t65.5 -212.5t63 -213.5t70.5 -212q61 -29 99 -93.5 t38 -131.5q0 -47 -29 -97q15 -29 34 -73t38 -92t32 -93.5t13 -74.5q0 -53 -23.5 -92.5t-61.5 -64.5t-86.5 -36.5t-94.5 -11.5q-94 0 -170 35t-126 114q-79 44 -120 129t-70 167l-202 5q-23 -82 -48 -162t-66 -141.5t-107 -98.5t-171 -37q-73 0 -146 32.5t-106 105.5 q-53 23 -86.5 71t-33.5 107zM-29 99q0 -29 16 -49.5t41 -32t52.5 -16t51.5 -4.5q88 0 139 42.5t81.5 108.5t48 143.5t41.5 144.5l430 -12q26 -64 48 -141.5t54 -145t88 -111.5t146 -44q23 0 51 4.5t53 16.5t41 31t16 48q0 20 -17.5 70t-42.5 107t-48 109.5t-35 79.5 q29 0 41 19t12 42q0 47 -29.5 91t-79.5 44q-41 111 -74.5 223.5l-67 225t-70 224t-86.5 219.5q-29 64 -86 93.5t-125 29.5q-61 0 -112.5 -26.5t-77.5 -84.5q-94 -214 -168.5 -435t-150.5 -440q-56 -3 -101 -36.5t-45 -92.5q0 -35 22 -58.5t57 -23.5q-9 -26 -26.5 -78.5 t-38 -108.5t-35 -106t-14.5 -70zM515 661q35 114 70 228.5t73 228.5q38 -114 70.5 -231.5t64.5 -234.5z" />
<glyph unicode="B" horiz-adv-x="1231" d="M-53 1396q0 82 9 150.5t36.5 117t85 74.5t153.5 26q41 0 83.5 -5.5t80.5 -26.5q64 20 146 21q146 0 248.5 -60t199.5 -163q44 -47 80.5 -86.5t63 -82t41 -93.5t14.5 -121q0 -94 -47 -182q64 -41 108 -105q79 -56 121.5 -137.5t42.5 -178.5q0 -149 -64.5 -269t-166.5 -215 t-228 -165.5t-249 -119.5q-70 -29 -146 -48.5t-155 -19.5q-85 0 -162.5 35.5t-118.5 111.5q-67 35 -99.5 96.5t-43.5 137.5q-15 99 -15 198.5t-3 199.5q-6 228 -10.5 455t-4.5 455zM56 952v-16q0 -239 14 -483q5 -70 5 -141q-1 -18 -1 -36v-16q0 -81 14 -161 q15 -97 66 -137.5t147 -40.5q67 0 131.5 16t129.5 43q105 44 217.5 105t208 141.5t155 184.5t59.5 236q0 76 -33.5 133t-87.5 95t-123 57t-136 19q59 59 105.5 135t46.5 163q0 85 -36.5 156.5t-98 124.5t-139 83.5t-159.5 30.5q-85 0 -164 -35q-26 32 -65.5 39.5t-80.5 7.5 q-117 0 -146 -51t-29 -154v-499zM404 1085q0 35 3 86.5t16 98.5t41 80.5t77 33.5q53 0 72 -45.5t19 -86.5q0 -47 -20.5 -98t-54 -99.5t-73 -88t-77.5 -65.5q0 47 -1.5 92t-1.5 92zM418 655q76 23 156.5 49.5t165.5 26.5q50 0 83.5 -20.5t33.5 -72.5q0 -79 -39.5 -155 t-101 -139t-136 -108.5t-144.5 -62.5q0 123 -6 241t-12 241zM635 474l3 -56q18 18 32.5 35.5t28.5 40.5z" />
<glyph unicode="C" horiz-adv-x="1492" d="M-79 734q0 173 57 357.5t165.5 335t263.5 248.5t348 98q117 0 248.5 -38t222.5 -120q20 -18 36.5 -38.5t33.5 -37.5q32 -32 63 -61.5t54.5 -60t38 -68.5t14.5 -88q0 -53 -22 -95.5t-58.5 -73t-83.5 -46.5t-97 -16q-53 0 -93.5 22t-77 54t-72 65.5t-78.5 54.5q-6 3 -18 3 q-64 0 -115.5 -73t-88 -171.5t-57 -196.5t-20.5 -147q0 -76 13 -148t52 -139q53 -26 114 -26q50 0 89 29t75.5 71.5t75 93.5t82 93.5t99.5 72t126 29.5q73 0 141.5 -36.5t101.5 -104.5q56 -26 89 -75.5t33 -114.5q0 -32 -11.5 -58.5t-26.5 -52.5q-53 -105 -137.5 -196 t-188.5 -155t-222.5 -101t-238.5 -37q-149 0 -299.5 39.5t-261.5 142.5q-23 23 -44 46.5t-44 46.5t-48 47t-49 47q-53 56 -88 126t-56.5 146t-30.5 155t-9 152zM29 734q0 -345 184.5 -539.5t532.5 -194.5q94 0 192 26.5t188.5 74.5t163.5 117t114 151q9 18 34 60t25 63 q0 59 -51.5 88t-100.5 29q-53 0 -97 -29.5t-83.5 -72t-77.5 -93.5t-80.5 -93.5t-93.5 -72t-115 -29.5q-105 0 -180 48.5t-120.5 124.5t-67.5 168t-22 183q0 50 12 121.5t34 149t54 153.5t74.5 137.5t96.5 99.5t116 38q59 0 95 -32t70 -68.5t73.5 -68.5t100.5 -32 q56 0 104 32t48 93q0 23 -8.5 47t-23.5 47q-35 59 -87.5 98t-115.5 62.5t-130.5 34t-131.5 10.5q-170 0 -304.5 -89.5t-228 -227t-143.5 -301t-50 -313.5z" />
<glyph unicode="D" horiz-adv-x="1427" d="M-52 351q2 94 2 158q0 243 4.5 483t4.5 480q0 61 28 112t71.5 86.5t101 56t112.5 20.5q50 0 98 -17.5t83 -55.5q193 99 407 99q85 0 148 -11.5t117 -38t102.5 -67.5t100.5 -100q20 -23 42.5 -40.5t42.5 -40.5q59 -64 97 -145t61.5 -168.5t32 -178.5t8.5 -176 q0 -266 -96.5 -465t-260.5 -330.5t-384.5 -197.5t-466.5 -66q-88 0 -174.5 26.5t-127.5 114.5q-70 35 -102 111t-42 166q-9 79 -10 162v23zM58 392v-10q0 -115 12 -227q6 -61 20.5 -99t41 -58.5t69 -28t100.5 -7.5q225 0 424.5 57t348.5 174t236.5 297t87.5 423 q0 132 -24.5 266.5t-86 241t-165.5 175.5t-262 69q-240 0 -447 -141q-6 56 -48.5 85t-92.5 29q-35 0 -70 -11.5t-66 -33.5t-50 -52.5t-19 -68.5q0 -211 -4 -421.5t-4 -421.5q-1 -117 -1 -237zM401 617q0 82 1.5 162.5t7.5 162.5q6 73 32 161t73 162.5t114 124t155 49.5 q94 0 149.5 -60t84.5 -146t39.5 -181t10.5 -163q0 -138 -52.5 -260.5t-143.5 -217.5t-211 -155t-254 -75q-3 111 -4.5 218t-1.5 218zM611 597l3 -246q76 38 139 95t108.5 127.5t72 151t26.5 164.5q0 85 -10.5 171.5t-45.5 165.5l-15 3q-41 0 -77.5 -23.5t-67 -60 t-52.5 -77.5t-37 -76q-32 -85 -38 -193t-6 -202z" />
<glyph unicode="E" horiz-adv-x="1459" d="M-50 609q0 184 28 364t66 361q-56 56 -56 135q0 59 32.5 104t81.5 71q41 73 111.5 115.5t152.5 42.5q67 0 127 -30.5t98 -89.5q99 3 198.5 7.5t202.5 4.5q53 0 114 -3t121 -19t108.5 -46.5t71.5 -86.5q53 -26 86.5 -73t33.5 -106q0 -82 -45 -127t-112.5 -67t-145 -26.5 t-141.5 -4.5h-47q-85 0 -167 1.5t-167 1.5l-26 -158q99 9 197 15t198 6q76 0 155 -32.5t114 -108.5q53 -26 86.5 -74.5t33.5 -109.5q0 -64 -32 -111t-91 -73q59 -12 111.5 -43t75.5 -89q117 -56 117 -179q0 -108 -84.5 -181t-201.5 -117t-243 -61.5t-208 -17.5 q-79 0 -166.5 4.5t-174 22t-164 51t-139.5 89.5l-43.5 43.5t-40.5 44.5q-20 23 -42.5 40.5t-42.5 40.5q-85 94 -113 220t-28 249zM59 609q0 -184 55.5 -300t155 -180.5t235.5 -87.5t297 -23q56 0 161 13t209 45t181.5 83.5t77.5 124.5q0 56 -51.5 79t-95.5 23 q-50 0 -85 -14.5t-73 -46.5q-67 -59 -153.5 -73.5t-170.5 -14.5q-99 0 -175.5 13t-125 49.5t-73 105.5t-24.5 180v35q176 26 351 31t351 19q50 6 96.5 29.5t46.5 81.5q0 32 -19 52.5t-45 34t-57 19t-57 5.5q-164 0 -323.5 -13t-320.5 -31q15 129 37 253.5t45 250.5h70 q108 0 215 -3t215 -3q29 0 80.5 1.5t102.5 13t88 35t37 67.5q0 47 -38 71.5t-91 36.5t-105.5 13.5t-84.5 1.5q-123 0 -240 -6t-237 -6q-15 56 -56 88t-99 32q-61 0 -111 -36.5t-71 -95.5q-32 -9 -58.5 -33.5t-26.5 -59.5q0 -32 19.5 -54t45.5 -34q-41 -193 -73 -384.5 t-32 -387.5zM617 421q0 -29 9 -64q41 -9 82 -10.5t82 -1.5q64 0 139 7.5t124 51.5q15 15 31 26.5t37 22.5q-129 -6 -253.5 -11.5t-250.5 -20.5z" />
<glyph unicode="F" horiz-adv-x="1208" d="M-117 731q0 53 23.5 101.5t64.5 77.5l3 126l-3 166q-70 61 -70 156q0 99 79 163q3 59 27.5 106t64 79t91 49.5t106.5 17.5q70 0 140.5 -29.5t108.5 -96.5q117 9 234 15t237 6q79 0 164 -31t120 -110q53 -26 85 -73t32 -105q0 -47 -19 -85t-51.5 -64.5t-73.5 -41 t-84 -20.5q-132 -18 -261 -25t-260 -22l-3 -90q94 9 186 16t185 7q67 0 133 -30.5t93 -98.5q53 -23 85 -70t32 -105q0 -47 -19 -85t-51.5 -66t-73.5 -45.5t-85 -26.5q-123 -23 -244 -34.5t-244 -23.5q3 -111 7.5 -218t4.5 -218q0 -59 -26.5 -102.5t-67.5 -73t-93.5 -44 t-102.5 -14.5q-76 0 -146.5 32t-102.5 105q-64 32 -94 96t-38 142q-6 51 -5 102q-1 27 1 55q4 79 5 138l-3 105q-44 32 -67.5 83t-23.5 104zM-9 731q0 -41 23.5 -74.5t67.5 -39.5q3 -82 3 -161v-161q1 -53 -1 -108q0 -6 -1 -11q0 -48 12 -90q13 -46 48 -75t109 -29 q26 0 58 7.5t60 22t47 38t19 55.5q0 135 -6 268t-6 268q146 12 289.5 25t290.5 42q44 9 90.5 35t46.5 82q0 50 -45.5 70.5t-86.5 20.5q-149 0 -293.5 -16t-294.5 -31q3 105 4.5 210.5t4.5 213.5q155 20 310 26t307 30q41 6 86.5 29t45.5 73q0 32 -20.5 54t-49.5 34t-63 16 t-57 4q-140 0 -276.5 -7t-276.5 -22q0 73 -52.5 104t-114.5 31q-102 -1 -143 -55q-36 -48 -36 -124q0 -11 1 -23q-32 -15 -57 -41t-25 -64q0 -32 20.5 -57t52.5 -37v-228l-3 -199q-41 -6 -64.5 -35.5t-23.5 -70.5z" />
<glyph unicode="G" horiz-adv-x="1480" d="M-79 755q0 196 57 374.5t167 314.5t270.5 216.5t371.5 80.5q181 0 310 -60t249 -189q38 -38 73 -76t63 -77.5t44 -86.5t16 -105q0 -53 -22 -97t-58.5 -73t-85 -45t-97.5 -16q-76 0 -142 35t-104 102q-79 44 -120 132q-9 3 -29 3q-70 0 -124.5 -60t-91 -142t-57 -168.5 t-20.5 -141.5q0 -85 16 -175.5t57 -166.5q23 -9 47 -9q38 0 71.5 14.5t63.5 32.5q-38 15 -70.5 42.5t-46.5 68.5q-120 56 -120 187q0 88 46.5 137.5t117 73t153.5 29.5t154 6h58q105 0 188.5 -23.5t142.5 -123.5q59 -32 91 -83t49.5 -111t21.5 -124.5t4 -122.5q0 -76 1 -152 q1 -18 1 -36q0 -59 -4 -117q-3 -32 -0.5 -61t-2.5 -61q-9 -56 -37 -97t-70.5 -67.5t-92 -38t-102.5 -11.5q-70 0 -143 32t-105 103l-33 20q-76 -26 -156.5 -42.5t-159.5 -16.5q-123 0 -235.5 39.5t-205.5 121.5q-20 18 -36.5 38.5t-34.5 37.5q-23 23 -48 45.5t-45 45.5 q-108 132 -156.5 304.5t-48.5 339.5zM29 755q0 -140 34 -276.5t105.5 -243t184 -172.5t273.5 -66q117 0 229.5 35t215.5 88v-53q0 -91 27.5 -130t127.5 -39q85 0 127.5 26t58.5 72q15 41 15 94q0 4 -1 10q-1 58 -1 122q0 70 5 170v42q0 78 -12 150q-17 92 -65 156.5 t-151 64.5q-35 0 -70 1t-70 1t-93.5 -1t-114 -14.5t-96.5 -41t-41 -80.5q0 -38 19 -58.5t46.5 -32t61.5 -14.5t60 -3q41 0 79 3t79 3q12 -20 15 -41t3 -44q0 -15 -1.5 -28t-1.5 -28q-35 -35 -76 -73t-88 -68.5t-98 -49.5t-104 -19q-97 0 -161 59.5t-102 146t-53 184.5 t-15 174q0 79 26.5 186t76 202t126 162t172.5 67q94 0 136.5 -42t73 -93.5t67 -94t115.5 -42.5q56 0 107 31t51 95q0 18 -3 27q-29 88 -86 153.5t-128.5 111t-156.5 67.5t-170 22q-187 0 -329 -73.5t-237 -195t-143.5 -279.5t-48.5 -330z" />
<glyph unicode="H" horiz-adv-x="1383" d="M-108 840q0 50 20.5 101t61.5 83v339q0 88 5.5 162.5t33.5 129t86.5 85t166.5 30.5q76 0 158 -30.5t111 -106.5q50 -23 82.5 -63t32.5 -98q0 -99 -1.5 -199t-1.5 -199l190 3v450q0 59 29 101.5t73 68.5t96.5 39.5t99.5 13.5q76 0 146.5 -31t102.5 -104q105 -50 117 -161 q14 -115 14 -231q-1 -11 -1 -23v-86q0 -85 2 -169q41 -32 60 -82t19 -99q0 -50 -18 -102.5t-59 -85.5q3 -140 3 -276v-277q0 -129 -79 -185.5t-196 -56.5q-76 0 -155 32t-111 108q-102 53 -120 164q-18 105 -18 213v6q0 111 1 220h-196v-509q0 -61 -26.5 -107t-67.5 -75 t-95 -42t-107 -13q-76 0 -146 29t-103 102q-102 50 -120 161q-17 112 -17 224q-1 36 1 73q8 148 8 297q-41 32 -61.5 79t-20.5 97zM0 840q0 -38 20.5 -69t61.5 -31v-436q0 -56 -2 -111v-13q0 -48 10 -88q12 -46 47.5 -75t108.5 -29q26 0 58 6t61.5 19t50 35t20.5 54l-3 480 l3 152l512 3q1 -45 1 -91q1 -114 -5 -229q-2 -33 -2 -66q0 -128 23 -254q12 -61 69 -83.5t110 -22.5q26 0 55.5 6t54.5 17.5t41 33.5t16 51q0 164 -1.5 325t-4.5 325q44 3 61.5 42.5t17.5 74.5q0 36 -19 72q-18 34 -54 33h-6q-1 47 -1 94q0 95 4 194q1 30 1 59 q0 117 -19 230q-9 59 -57 76t-98 17q-23 0 -57 -5.5t-63 -19t-49.5 -35.5t-20.5 -54q1 -139 -1 -277q0 -46 -1 -93q0 -92 2 -186l-512 -11q0 149 1.5 292.5t1.5 289.5q0 79 -51 99.5t-119 20.5q-50 0 -107 -17.5t-68 -76.5q-19 -101 -19 -209q0 -41 3 -83q10 -152 10 -296 v-26q-41 -6 -63 -41t-22 -73z" />
<glyph unicode="I" d="M-79 1551q0 85 39.5 133t99.5 70t132 26.5t136 4.5q47 0 99.5 -3t100.5 -17.5t87.5 -44t63.5 -79.5q59 -29 91 -81.5t32 -120.5q0 -59 -26.5 -107t-76.5 -77q-3 -263 -4 -523.5t-7 -526.5q111 -64 111 -190q0 -88 -38 -135t-98 -69t-130.5 -26t-134.5 -4q-47 0 -99.5 2.5 t-101 16t-88 41t-62.5 80.5q-59 29 -91 80.5t-32 115.5q0 123 105 187q3 263 7.5 522t7.5 523v3q-59 29 -91 80t-32 119zM29 1551q0 -56 38 -85t88 -35q-3 -301 -9 -598.5t-8 -598.5q-41 -12 -73.5 -39.5t-32.5 -77.5q0 -44 23.5 -69t58.5 -38t77.5 -16t80.5 -3h79 q32 0 73 3t77.5 16t61.5 39.5t25 70.5q0 50 -33.5 77.5t-80.5 39.5q6 301 9 599.5t6 600.5q44 6 73 32t29 73t-23.5 73t-58.5 39.5t-79 17.5t-88 4h-87q-32 0 -72 -2.5t-73.5 -16t-57 -38t-23.5 -68.5z" />
<glyph unicode="J" horiz-adv-x="1334" d="M-79 559q0 53 22 98t60 76t85 48.5t99 17.5q70 0 127.5 -32.5t89.5 -96.5q50 -23 74.5 -57t40.5 -75t25 -84.5t27 -87.5q47 59 76 168.5t45 235t23.5 244t7.5 194.5q-53 3 -116 7.5t-121.5 20.5t-108 45.5t-73.5 84.5q-53 26 -86.5 73t-33.5 109q0 76 48.5 121t120 68.5 t158 29.5t162.5 6h129q64 0 125.5 -1.5t125.5 -1.5h73q50 0 104 -3t102.5 -17.5t88 -44t62.5 -78.5q56 -29 88 -79t32 -114q0 -94 -65.5 -141t-150.5 -58v-126q0 -129 -7.5 -276.5t-34 -292.5t-76 -279.5t-133 -235.5t-205 -162.5t-293.5 -61.5q-82 0 -145 14.5t-117 44 t-104 72t-105 97.5q-20 20 -42.5 36.5t-42.5 39.5q-82 91 -121.5 211t-39.5 243zM29 559q0 -111 36.5 -209t102.5 -173t159.5 -118.5t207.5 -43.5q173 0 287 73t186 191.5t107 270.5t48 310t13 310t-3 272h24q29 0 62.5 3t63 12t50 28t20.5 54q0 44 -25 67.5t-63 36.5 t-82 16t-82 3h-58q-67 0 -137.5 1.5t-140.5 1.5q-187 0 -369 -18q-44 -6 -93.5 -25t-49.5 -74q0 -41 35 -64.5t89 -36.5t120 -17.5t124 -4.5q50 0 89.5 1.5t62.5 1.5h18v-117q0 -50 -1.5 -149.5t-10.5 -218t-28 -244.5t-51 -226.5t-80.5 -166.5t-118.5 -66q-47 0 -83.5 38 t-62.5 92t-43.5 109.5t-26.5 91.5q-15 59 -44 89t-94 30q-59 0 -108.5 -35t-49.5 -96z" />
<glyph unicode="K" horiz-adv-x="1345" d="M-50 1521q0 61 25 107t66 76.5t92 45t107 14.5q76 0 146 -27.5t103 -103.5q61 -29 93 -83.5t38 -118.5q41 38 102.5 98t130.5 115.5t137.5 96.5t127.5 41q67 0 133 -35t92 -100q56 -26 88 -74.5t32 -106.5q0 -50 -23.5 -91t-55.5 -76q-140 -149 -298.5 -276.5 t-313.5 -258.5q88 -70 171.5 -134.5t164 -129t161 -133.5t162.5 -150q44 -44 70 -89.5t26 -109.5q0 -53 -20.5 -100t-55.5 -82t-82 -57t-99 -22q-67 0 -132 41q-140 88 -264.5 193.5t-256.5 207.5v-208q0 -56 -24.5 -96.5t-64 -68.5t-88 -41t-98.5 -13q-79 0 -156.5 32 t-112.5 108q-53 29 -86.5 77.5t-33.5 109.5q0 357 -1.5 711t-1.5 711zM59 1521q0 -357 1 -711t1 -711q0 -32 18 -54t44 -35t57 -19t57 -6t55.5 6t54.5 17.5t42.5 33.5t17.5 52q0 108 -1.5 214.5t-1.5 215.5q29 -20 89 -70t137.5 -111.5t162.5 -127.5t159.5 -121.5 t131.5 -90.5t80 -35q59 0 106 46.5t47 105.5q0 38 -18 66t-44 51q-181 167 -380 313t-392 301q184 155 367 306t352 320q18 18 32.5 40t14.5 51q0 50 -43.5 78t-87.5 28q-23 0 -42.5 -7.5t-42.5 -22.5q-56 -32 -104 -79t-98 -90q-105 -97 -212 -192t-218 -186q0 82 6 162.5 t6 162.5q0 53 -3 96.5t-20.5 74.5t-53 47t-96.5 16t-121 -31t-60 -104z" />
<glyph unicode="L" horiz-adv-x="1187" d="M-50 211q0 281 3 557t3 557v170t22 153.5t79 112.5t171 44q38 0 82 -7t83.5 -25t70 -45.5t48.5 -65.5q50 -23 82 -65.5t32 -101.5q0 -293 -1.5 -579.5t-1.5 -579.5q94 3 189 4.5t189 1.5q76 0 146 -27.5t102 -103.5q61 -29 90.5 -80.5t29.5 -118.5q0 -79 -30.5 -124.5 t-82 -69t-114 -30.5t-124.5 -7q-41 0 -76 1t-67 1q-132 0 -260.5 1.5t-260.5 13.5q-82 6 -152 38t-111 108q-76 41 -108.5 111.5t-32.5 155.5zM58 1368q6 -124 6 -239q-3 -231 -4 -460.5t-1 -457.5q0 -105 51 -150.5t147 -51.5q170 -12 342.5 -15t342.5 -3q32 0 68.5 3 t70.5 16t56 36.5t22 67.5q0 50 -35.5 85t-84.5 35q-138 0 -272.5 -3t-272.5 -3h-81q0 345 1 684.5t1 684.5q0 29 -21.5 48.5t-51 31t-61.5 16t-53 4.5q-50 0 -95 -17.5t-57 -76.5q-19 -90 -19 -188q0 -23 1 -47z" />
<glyph unicode="M" horiz-adv-x="1688" d="M-50 99q0 354 9 701t9 701q0 64 25 112.5t65.5 82t95 51t112.5 17.5q164 0 261 -146q44 -26 90.5 -89t87.5 -136.5t77.5 -145t63.5 -121.5q67 132 135.5 263.5t153.5 251.5q53 73 117.5 108.5t157.5 35.5q82 0 158 -34t117 -110q70 -41 102.5 -105t38.5 -140 q6 -102 6 -205v-17v-32q0 -96 2 -191q6 -237 6 -469.5v-469.5q0 -64 -24.5 -111t-65.5 -76.5t-95.5 -44t-112.5 -14.5q-76 0 -143.5 30.5t-99.5 101.5q-82 38 -104 105t-22 149v290q-44 -64 -112.5 -99.5t-144.5 -35.5q-82 0 -139 36.5t-101 101.5l-53 41l-14 -425 q-3 -67 -15 -121t-41 -92t-79 -57t-126 -19t-159.5 33.5t-118.5 109.5q-53 29 -86.5 76t-33.5 108zM59 99q0 -32 20 -54t48 -36.5t60 -20.5t59 -6q76 0 108 34t44 85q9 37 9 79q1 16 -1 32q-4 60 -5 113q0 167 6 330.5t11 327.5q67 -99 127.5 -204.5t139.5 -199.5 q26 -32 55 -46.5t70 -14.5q53 0 94 22t73 63q94 123 159.5 262t142.5 270q0 -231 -1.5 -460.5t-1.5 -460.5q0 -47 1 -91t17.5 -76t48.5 -51t94 -19q35 0 68.5 5.5t61.5 21.5t45.5 44t17.5 69v436q0 237 4 471q1 35 1 69q0 200 -20 402q-18 181 -205 181q-64 0 -106.5 -21.5 t-80.5 -74.5q-117 -167 -206.5 -354t-191.5 -363q-76 123 -145 250.5t-136 252.5q-29 53 -55.5 110t-67.5 104q-61 76 -155 76q-70 0 -130 -36.5t-60 -118.5q0 -354 -8.5 -701t-8.5 -701z" />
<glyph unicode="N" horiz-adv-x="1588" d="M-50 108q0 474 9 948q3 111 3 226.5t15 227.5q15 123 86.5 181.5t193.5 58.5q94 0 152.5 -32.5t114.5 -108.5q26 -18 70 -69t93.5 -121t104 -149t104 -155t90.5 -139t64 -98l9 313q2 63 2 129q-1 33 -1 67v11q0 96 24 178q25 86 89.5 141.5t195.5 55.5q76 0 149.5 -30.5 t105.5 -107.5q53 -23 85 -71t32 -107q0 -243 -10.5 -481.5t-24.5 -481.5q-3 -61 -3.5 -134t-1.5 -147.5t-7 -145t-20 -128.5q-26 -102 -95 -139t-169 -37q-184 0 -289 149q-26 18 -69 67.5t-92.5 117t-102 143.5t-99.5 149t-86.5 133t-62.5 95v-477q0 -73 -6 -140 t-32.5 -115.5t-79 -77.5t-146.5 -29q-79 0 -158 33.5t-114 109.5q-56 29 -89.5 77.5t-33.5 109.5zM59 108q0 -32 19 -55.5t45 -38t58.5 -20.5t58.5 -6q85 0 118.5 44t42.5 110q5 36 5 74q0 32 -4 65q-8 73 -7 129v359.5t3 362.5q123 -190 247 -377t253 -375q59 -85 113 -174 t124 -165q35 -38 77.5 -52.5t92.5 -14.5q59 0 101 13t60 77q15 47 19 117.5t5.5 146.5t1.5 149t3 126q12 240 23.5 478t11.5 478q0 32 -16 51.5t-41 32.5t-52.5 17.5t-51.5 4.5q-70 0 -121 -29.5t-66 -102.5q-14 -77 -14 -157v-16q0 -29 1 -58q0 -58 -2 -114 q-6 -176 -10 -350t-10 -349q-176 260 -345.5 522t-353.5 519q-44 61 -79 86t-112 25q-79 0 -118.5 -30.5t-53.5 -112.5q-14 -88 -14 -179q1 -9 1 -19v-66q0 -67 -2 -134q-6 -249 -8.5 -496t-2.5 -496z" />
<glyph unicode="O" horiz-adv-x="1647" d="M-79 772q0 76 4.5 177t20.5 208t46.5 212.5t83.5 187t129 131.5t181 50q23 0 44 -6t44 -6q76 0 149 29.5t149 29.5q120 0 215.5 -17.5t180 -55.5t163.5 -97t161 -140q167 -167 252 -351.5t85 -421.5q0 -208 -67.5 -382t-190.5 -298t-294 -194.5t-379 -70.5 q-138 0 -243 26.5t-194 76t-168 123t-164 169.5q-111 123 -159.5 290t-48.5 330zM29 772q0 -176 53 -323.5t151 -252.5t241.5 -165t321.5 -60q184 0 336 61.5t260.5 171t167 263t58.5 338.5q0 187 -60 346.5t-171 276.5t-267.5 182.5t-347.5 65.5q-76 0 -144.5 -27.5 t-144.5 -27.5q-23 0 -48 4.5t-49 4.5q-82 0 -142 -47t-99.5 -123t-62.5 -171t-35 -190t-15 -181.5t-3 -145.5zM374 799q0 91 31 203.5t91 212t145 166.5t190 67q114 0 196 -58.5t137.5 -146t82 -193t26.5 -202.5t-31 -210.5t-91 -210t-146 -162.5t-200 -66q-111 0 -192 58.5 t-133.5 147.5t-79 194.5t-26.5 199.5zM585 696q0 -94 25 -186t75 -168q53 -35 120 -35q88 0 153.5 57t112.5 140.5t70 177t23 166.5q0 94 -23 184.5t-76 167.5q-61 38 -132 38q-79 0 -143 -60t-109.5 -145t-70.5 -177.5t-25 -159.5z" />
<glyph unicode="P" horiz-adv-x="1354" d="M-51 809v29q0 292 19 587q3 70 14.5 118.5t39.5 79t72 49.5t114 31q117 23 234 46.5t237 23.5q70 0 149 -11.5t155 -35t146.5 -58.5t122.5 -85q23 -20 42.5 -42.5t42.5 -45.5q50 -50 88 -91t63 -83t36.5 -96.5t11.5 -130.5q0 -184 -80.5 -330.5t-209 -246t-294 -152 t-335.5 -52.5l3 -237q0 -146 -65.5 -223.5t-218.5 -77.5q-76 0 -152 30.5t-111 106.5q-44 20 -68.5 51t-36.5 66t-15 77.5t-3 86.5q0 310 -1 616zM59 193q0 -53 4 -91t21.5 -64t53 -39.5t96.5 -13.5q73 0 108 22t50 60t15 88v105v270q26 -3 52.5 -4.5t52.5 -1.5 q146 0 292.5 43.5t262 130t187 212.5t71.5 290q0 123 -62.5 210.5t-158 144.5t-209.5 83.5t-216 26.5q-114 0 -228.5 -25t-225.5 -45q-50 -9 -77.5 -19.5t-43.5 -28t-20.5 -46.5t-7.5 -79q-15 -310 -16 -614.5t-1 -614.5zM407 761l20 637q59 18 119 29.5t118 11.5 q59 0 116 -13t102 -43.5t73 -77.5t28 -114q0 -114 -36.5 -196t-102.5 -135t-156.5 -77.5t-195.5 -24.5h-41t-44 3zM626 878q249 53 249 313q0 15 -3 23q-44 12 -103 12q-35 0 -68.5 -4.5t-65.5 -10.5z" />
<glyph unicode="Q" horiz-adv-x="1746" d="M-79 682q0 231 71.5 427t205 341t323.5 226.5t427 81.5q155 0 310 -45t272 -151q26 -23 49.5 -51t53.5 -54q26 -23 52.5 -46.5t49.5 -52.5q94 -123 143.5 -271t49.5 -300q0 -196 -70 -379t-193 -332q26 -29 54 -55.5t51 -54t39.5 -60t16.5 -76.5q0 -97 -76 -149.5 t-164 -52.5q-94 0 -177.5 60t-147.5 125q-176 -59 -357 -59q-222 0 -387.5 72t-317.5 230q-73 76 -126 141.5t-86.5 137.5t-49.5 155t-16 192zM29 682q0 -170 60 -303t164 -225.5t244.5 -140.5t301.5 -48q199 0 386 76q26 -26 61 -61.5t74.5 -66t80.5 -52.5t79 -22 q41 0 86.5 23.5t45.5 73.5q0 23 -25 56.5t-58.5 67.5t-67 64.5t-51.5 51.5q140 140 222 326t82 387q0 173 -55.5 312t-156.5 240t-242.5 155t-311.5 54q-214 0 -385 -73t-289.5 -202t-181.5 -307t-63 -386zM372 761q0 64 8.5 135.5t30.5 139t58.5 124.5t95.5 95 q38 23 79 27.5t82 16.5t77.5 31t71.5 36.5t73 30.5t85 13q97 0 159.5 -58.5t97.5 -142t50 -178.5t15 -171q0 -123 -28 -250t-95 -230q-23 32 -46.5 72t-53 73.5t-64.5 57t-82 23.5q-50 0 -80.5 -29.5t-30.5 -79.5q0 -79 52.5 -147.5t99.5 -124.5q-76 -23 -143 -23 q-117 0 -212.5 45.5t-161 123t-102 178.5t-36.5 212zM582 658q0 -67 10.5 -125.5t36.5 -102.5t73 -73t120 -41q-23 41 -39 86.5t-16 94.5q0 94 62.5 155.5t156.5 61.5q67 0 125.5 -32t99.5 -85q20 64 27.5 130t7.5 133q0 85 -14.5 171.5t-52.5 162.5q-12 3 -20.5 4.5 t-20.5 1.5q-38 0 -76 -15t-76 -34l-76 -38t-76 -28q-18 -6 -51.5 -8.5t-48.5 -11.5q-47 -26 -76 -76t-46.5 -107t-23.5 -117t-6 -107z" />
<glyph unicode="R" horiz-adv-x="1290" d="M-50 146v1340q0 111 76 183t188 72q111 0 193 -67q111 44 226.5 67t235.5 23q61 0 122.5 -10t120 -32t108.5 -58.5t85 -89.5q88 -59 127.5 -149.5t39.5 -192.5q0 -117 -38 -221t-104 -190.5t-155.5 -155t-191.5 -115.5q88 -76 173 -155t169 -158q41 -38 63 -80.5 t22 -100.5q0 -53 -23.5 -103t-61.5 -88t-89 -60t-104 -22t-126 44t-144.5 105.5t-137.5 124.5t-107 101v-23q0 -70 -13 -133t-43.5 -111.5t-83.5 -76.5t-132 -28q-76 0 -152 39.5t-114 110.5q-59 32 -94 87.5t-35 122.5zM59 146q0 -70 60 -108t121 -38q59 0 92.5 26.5t51 66 t22 87.5t4.5 92q0 50 -3 95.5t-3 94.5v44q26 -23 74.5 -70t110 -102.5t127 -115.5t125.5 -109.5t110 -80.5t79 -31q61 0 115.5 50t54.5 114q0 32 -15 55.5t-38 46.5q-114 114 -240 215t-249 210q114 26 222.5 84.5t193.5 142t136 190t51 232.5q0 88 -30.5 149.5t-85 99.5 t-126 54t-150.5 16q-123 0 -253 -30.5t-239 -86.5q-23 47 -68.5 70.5t-94.5 23.5q-67 0 -111 -39.5t-44 -107.5v-1340zM404 848v416q35 26 86 55.5t106.5 55.5t111.5 42.5t99 16.5q59 0 88.5 -32.5t29.5 -90.5q0 -91 -51.5 -170t-129 -139t-169.5 -99.5t-171 -54.5z M617 1044q44 29 85 63t70 81q-76 -35 -155 -85v-59z" />
<glyph unicode="S" horiz-adv-x="1290" d="M-79 468q0 56 25 104t66 84.5t92 58.5t104 22q67 0 121 -32t84 -94q59 -26 82 -58t33 -71.5t13 -83.5t15 -91q32 -12 73 -12q18 0 47 4.5t57 16.5t50 28t22 36q0 47 -21 79q-59 41 -121.5 79t-124.5 79q-76 50 -141.5 107t-127.5 122q-50 50 -93.5 98t-77.5 100.5 t-54.5 112.5t-20.5 133q0 132 54.5 227t142 156.5t200 90.5t230.5 29q193 0 332 -58.5t273 -192.5l69 -69t52.5 -63t33.5 -71.5t12 -97.5q0 -111 -79 -181.5t-187 -70.5q-70 0 -130.5 32t-95.5 97q-79 44 -117 134q-9 3 -29 3q-41 0 -70 -17.5t-32 -61.5q59 -41 120 -71.5 t120 -68.5q76 -50 140 -107t126 -119q56 -56 107 -112.5t90.5 -121t63 -134.5t23.5 -155q0 -138 -76.5 -239t-192 -166.5t-250 -98t-248.5 -32.5q-167 0 -311.5 58.5t-255.5 184.5q-15 18 -34 32.5t-37 32.5q-79 79 -112.5 188.5t-33.5 220.5zM29 468q0 -129 45.5 -224 t123 -158t183 -93.5t222.5 -30.5q91 0 205 25t214.5 77.5t169.5 133t69 191.5q0 126 -58.5 224t-146.5 178.5t-190 145t-190 121.5t-146.5 109.5t-58.5 108.5q0 91 60 140.5t148 49.5q73 0 115.5 -19t66 -50t38 -64.5t30.5 -64t44 -49.5t80 -19q61 0 109.5 38t48.5 105 q0 94 -60 159.5t-146 106.5t-182.5 58.5t-172.5 17.5q-91 0 -184.5 -22t-167 -68.5t-120 -121.5t-46.5 -183q0 -114 58.5 -201.5t144.5 -159.5t187 -132t187.5 -123t145 -133t58.5 -161q0 -53 -29.5 -89t-73 -59.5t-95 -34t-95.5 -10.5q-129 0 -206.5 80.5t-77.5 209.5 q0 59 -30.5 105.5t-97.5 46.5q-61 0 -120 -47t-59 -114z" />
<glyph unicode="T" horiz-adv-x="1418" d="M-108 1548q0 94 58.5 146t146.5 67q53 9 106.5 10.5t106.5 1.5h85q196 3 390.5 4.5t393.5 1.5q44 0 93.5 -3t96.5 -16t85 -39.5t59 -76.5q53 -23 85 -73t32 -108q0 -82 -42.5 -130.5t-108.5 -73t-145 -30.5t-149 -6h-91q0 -249 -3 -496t-3 -499q0 -82 -2.5 -162.5 t-29 -142t-85 -99.5t-169.5 -38q-73 0 -143.5 34t-102.5 104q-59 29 -88 77.5t-38 115.5q-6 56 -6 110v109q-3 221 -3 441.5t3 439.5h-117q-85 0 -169.5 25t-125.5 110q-120 61 -120 196zM0 1548q0 -56 35 -82.5t85 -31.5q79 -9 155 -9q67 0 131.5 3t128.5 3 q-8 -437 -8 -877v-98q0 -82 1.5 -165t9.5 -165q6 -67 51.5 -96.5t109.5 -29.5q56 0 110 25t60 86q9 74 9 152q0 29 -2 59q-3 65 -2 128q0 43 1 85q9 453 9 902q44 0 87.5 -1.5t90.5 -1.5h50q44 0 96.5 2.5t99.5 16t79 39.5t32 73q0 35 -20.5 57t-51 32.5t-67.5 13.5t-69 3 h-47h-318h-237t-240 -6h-85h-59q-29 0 -68.5 -3t-74.5 -13.5t-58.5 -33.5t-23.5 -67z" />
<glyph unicode="U" horiz-adv-x="1524" d="M-79 807q0 73 6 183t17.5 225.5t30.5 222.5t43 171q35 94 109.5 133.5t170.5 39.5q76 0 154 -32.5t110 -108.5q50 -23 83.5 -67t33.5 -102q0 -76 -17.5 -152.5t-29.5 -152.5q-23 -152 -38 -302.5t-15 -302.5q0 -59 3 -119t18 -118q99 15 168 89.5t113 184t67 241 t33.5 262t12 246t1.5 188.5q0 61 27.5 109.5t71.5 82t99.5 49.5t111.5 16q70 0 136 -30.5t95 -97.5q64 -29 92 -93t37 -142q7 -58 7 -118q0 -20 -1 -39q-3 -79 -3 -138q0 -275 4 -548.5t4 -551.5q0 -132 -74.5 -196t-200.5 -64q-76 0 -140 32t-102 102l-38 24 q-102 -82 -225.5 -121.5t-254.5 -39.5q-73 0 -131.5 13t-108.5 39.5t-97 64.5t-96 91q-59 61 -105.5 112t-82.5 130q-61 138 -80 287t-19 298zM29 807q0 -126 17.5 -270.5t73.5 -267.5t155 -205t263 -82q193 0 339.5 89.5t254.5 247.5l-3 -97q0 -47 4.5 -89t20.5 -74.5 t50 -51.5t92 -19q82 0 126 34t44 118q0 293 -4.5 585.5t-4.5 588.5v138.5t-15 139.5q-12 56 -49.5 74.5t-87.5 18.5q-32 0 -68.5 -8.5t-66 -27.5t-48.5 -47t-19 -66q0 -94 -3 -228.5t-17.5 -282t-48 -292.5t-93.5 -260.5t-154 -187t-231 -71.5q-70 0 -108 52.5t-56 125.5 t-20.5 150.5t-2.5 124.5q0 155 14.5 310t37.5 307q12 73 29.5 145t17.5 145q0 29 -17.5 48t-44 31t-55.5 16.5t-53 4.5q-59 0 -105.5 -19.5t-69.5 -77.5q-26 -59 -44 -161t-28 -215t-16 -220t-6 -174z" />
<glyph unicode="V" horiz-adv-x="1462" d="M-138 1548q0 61 31 105t79 74.5t105.5 45.5t109.5 15q73 0 131.5 -28t91.5 -95q73 -38 102 -103q15 -29 23.5 -59.5t17.5 -63.5q44 -158 95 -310t101 -307l219 480q44 97 82 199t97 187q67 102 193 103q70 0 143 -37t103 -104q56 -26 88 -71.5t32 -106.5q0 -23 -6 -42.5 t-12 -39.5q-82 -243 -196 -472.5t-216 -464.5q-59 -135 -116 -272t-133 -266q-47 -76 -114 -118.5t-161 -42.5q-82 0 -151 39.5t-112 107.5q-61 44 -100 96q-18 29 -64.5 146t-105 279.5t-121.5 348.5t-115.5 348t-86.5 281t-34 148zM-29 1548q0 -20 33.5 -134.5t86 -272.5 t114 -341t118.5 -341t99.5 -269t57.5 -131q32 -47 71.5 -69t98.5 -22q64 0 105 26t76 79q18 26 73.5 144.5t128.5 281t155 347t149 342.5t111 266t44 120q0 56 -52.5 82t-99.5 26q-38 0 -57 -10t-42 -39q-59 -76 -97 -181.5t-79 -193.5q-184 -413 -377 -825 q-70 211 -136 421.5t-131 421.5q-23 79 -45 172.5t-66 166.5q-23 41 -49.5 52.5t-73.5 11.5q-26 0 -62.5 -7t-71.5 -23t-58.5 -41t-23.5 -60z" />
<glyph unicode="W" horiz-adv-x="1813" d="M-138 1551q0 59 28 102.5t72 72.5t98 44t104 15q76 0 137.5 -31t93.5 -98q53 -26 85 -82t52.5 -124.5t30.5 -137.5t22 -118q32 105 108 163.5t191 58.5q79 0 150.5 -35t112.5 -108q59 -32 91 -83.5t49 -115.5l141 453q18 56 36.5 105.5t46.5 87.5t72 60t114 22 t137.5 -33.5t99.5 -100.5q59 -32 91 -80.5t32 -115.5q0 -26 -32.5 -140.5t-80.5 -274t-108 -341t-115.5 -343.5t-99.5 -286.5t-65 -168.5q-35 -79 -96.5 -128.5t-151.5 -49.5q-73 0 -129 35t-91 96q-85 47 -121.5 136.5t-62.5 173.5q-20 -73 -42 -149t-57.5 -139t-94 -102.5 t-154.5 -39.5q-76 0 -140.5 35.5t-105.5 102.5q-50 29 -80.5 71.5t-48.5 95.5q-12 38 -41 155t-64 275t-73 333.5t-69 329t-51.5 265t-20.5 137.5zM-29 1551q0 -23 20.5 -133t51 -262t68.5 -326.5t72 -329.5t61.5 -267.5t39.5 -144.5q23 -59 62.5 -92.5t106.5 -33.5 q61 0 101 29t66 82t41 111.5t32 116.5q38 123 75 244.5t69 244.5q53 -178 98 -364t121 -356q23 -50 57 -85t92 -35q59 0 92.5 32.5t57.5 81.5q15 32 57 152t96 282.5t112.5 344t108.5 339.5t82 267.5t32 127.5q0 59 -48 88t-98 29q-94 0 -132 -85t-58.5 -175.5t-49.5 -178.5 q-59 -181 -116 -361t-115 -362q-38 161 -70.5 325t-84.5 322q-44 129 -187 129q-138 0 -188 -123q-59 -140 -95 -291t-80 -297q-41 167 -73.5 333.5t-70.5 336.5q-18 79 -30.5 164t-42.5 161q-20 50 -53.5 67t-86.5 17q-26 0 -60 -7t-63 -21.5t-49.5 -39.5t-20.5 -57z" />
<glyph unicode="X" horiz-adv-x="1594" d="M-61 1463q0 61 27.5 115.5t74.5 95t104 64t115 23.5q53 0 94 -20.5t79 -55.5q102 -94 191.5 -202t180.5 -213q85 99 159.5 204.5t167.5 199.5q38 38 82 59.5t100 21.5q73 0 138.5 -39.5t103.5 -103.5q59 -32 97 -92t38 -130q0 -56 -54 -143.5t-127 -180t-146.5 -176 t-114.5 -132.5q111 -132 228.5 -256.5t219.5 -261.5q32 -41 51 -86.5t19 -97.5q0 -59 -23.5 -110t-63 -90.5t-92 -63t-108.5 -23.5t-99.5 20.5t-84.5 58.5q-114 108 -218 223.5t-206 229.5q-94 -111 -181.5 -225t-187.5 -216q-41 -41 -87.5 -66t-105.5 -25q-70 0 -137.5 38 t-99.5 102q-59 32 -94 88t-35 123q0 47 18 88t44 79q97 138 205 263.5t213 254.5q-108 123 -217.5 244t-209.5 253q-26 35 -42 74.5t-16 86.5zM47 1463q0 -50 35 -94q111 -149 237 -285t249 -277q-123 -146 -246 -288t-231 -297q-15 -23 -26.5 -46.5t-11.5 -55.5 q0 -59 48 -98.5t107 -39.5q35 0 61 15t50 38q126 126 232.5 266.5t217.5 274.5q123 -138 241.5 -281t256.5 -266q23 -23 49.5 -35t58.5 -12q70 0 125.5 53t55.5 123q0 32 -13 61.5t-33 55.5q-117 155 -247.5 297t-258.5 288q20 26 64 76t96.5 111.5t108 130t102.5 131.5 t76 113t29 73q0 61 -54 106.5t-112 45.5q-59 0 -100 -47q-111 -123 -210.5 -251.5t-201.5 -254.5q-76 85 -151 174.5t-151 173.5q-38 41 -71.5 85t-74.5 85q-20 20 -40.5 30.5t-53.5 10.5q-35 0 -73 -14.5t-68.5 -41t-51 -61.5t-20.5 -73z" />
<glyph unicode="Y" horiz-adv-x="1500" d="M-138 1559q0 59 25 106t66 79t93.5 51t105.5 19q85 0 149.5 -39.5t113.5 -109.5q44 -26 95.5 -93.5t104 -146.5t99.5 -156.5t76 -124.5q99 140 188.5 285t197.5 277q88 105 220 105q67 0 134 -32t94 -100q117 -56 117 -178q0 -59 -32 -117q-64 -117 -140.5 -227 t-154 -218t-153.5 -218t-138 -227q0 -120 -5.5 -238t-5.5 -238q0 -59 -25 -103t-64.5 -74.5t-90.5 -46.5t-104 -16q-73 0 -147.5 33.5t-107.5 106.5q-120 61 -120 190q0 123 4.5 243t4.5 243q-59 114 -133 216.5t-150.5 202t-151 202t-129.5 216.5q-15 32 -25.5 62.5 t-10.5 65.5zM-29 1559q0 -32 44 -106.5t111 -171t144.5 -203.5t145 -203.5t111.5 -171t44 -106.5q0 -123 -4.5 -244.5t-4.5 -244.5q0 -64 54 -90.5t110 -26.5q67 0 119.5 32.5t52.5 108.5q0 123 6 242.5t6 242.5q0 20 45.5 93.5t115.5 174.5t149 216.5t149 218t115.5 180 t45.5 103.5q0 53 -45.5 76.5t-88.5 23.5q-79 0 -132 -62q-47 -56 -85 -118.5t-79 -121.5q-79 -120 -161 -237t-170 -231q-120 167 -222 344t-231 341q-32 41 -70 64.5t-94 23.5q-61 0 -121 -39.5t-60 -107.5z" />
<glyph unicode="Z" horiz-adv-x="1489" d="M-79 132q0 59 23.5 110t55.5 97q155 217 313 426t316 420q-59 -3 -118.5 -3h-121.5q-76 0 -149 30.5t-105 106.5q-61 29 -92 80.5t-31 118.5q0 102 64 152t158 62q56 6 111.5 7.5t110.5 1.5h112q158 6 311.5 9t311.5 3q76 0 150.5 -32.5t109.5 -105.5q61 -32 92 -86 t31 -122q0 -53 -19 -101t-48 -92q-146 -225 -310 -437t-322 -432q108 0 213.5 1.5t213.5 1.5q73 0 144.5 -32t104.5 -102q61 -29 92 -79t31 -117q0 -85 -39.5 -130.5t-98.5 -66t-129 -25t-131 -4.5h-88q-193 -6 -386 -6h-387q-50 0 -105 3t-105 18t-92.5 44t-65.5 82 q-59 29 -92.5 82t-33.5 117zM29 132q0 -47 25 -73.5t64.5 -39.5t85 -17.5t89.5 -4.5h79h283h213.5t211.5 6h87h59q32 0 71.5 3t76 14.5t61.5 35t25 64.5q0 59 -42.5 89.5t-95.5 30.5q-143 0 -286.5 -1.5t-289.5 -1.5h-131.5t-128.5 3q208 287 427 563.5t404 577.5 q18 29 32 61.5t14 67.5q0 76 -54 105t-118 29q-164 0 -326.5 -3t-326.5 -8h-99q-50 0 -98 -1.5t-98 -7.5t-86.5 -26.5t-36.5 -79.5q0 -70 54 -97.5t113 -27.5q161 0 320.5 4t322.5 10q-211 -284 -428.5 -560t-413.5 -569q-23 -32 -41 -68.5t-18 -77.5z" />
<glyph unicode="a" horiz-adv-x="1038" d="M-79 255q0 111 42.5 207.5t124.5 172.5q-73 64 -73 167q0 88 61.5 153.5t149 108t185.5 63t168 20.5q114 0 215 -41t169 -138q67 -44 108 -108t64.5 -138.5t32 -153.5t8.5 -155q0 -99 9 -196t9 -197q0 -56 -25 -99.5t-64.5 -72.5t-90.5 -45.5t-101 -16.5q-91 0 -155 41 q-126 -38 -266 -38q-56 0 -117.5 9t-118.5 31t-105.5 57t-80.5 88q-76 47 -112.5 120t-36.5 161zM29 255q0 -73 34 -123t85 -78t115.5 -39.5t125.5 -11.5q73 0 146.5 11.5t140.5 38.5q23 -29 59.5 -42.5t71.5 -13.5q26 0 57 7.5t57.5 23.5t42.5 39.5t16 55.5q0 99 -8.5 197 t-8.5 198q0 99 -15 193t-57.5 167t-117 117t-194.5 44q-47 0 -123 -15t-150.5 -44t-128.5 -74.5t-54 -103.5q0 -50 33.5 -82t83.5 -32q41 0 76 21.5t70 46.5t76 47t94 22q35 0 49.5 -32t17.5 -62q-99 -6 -206 -36.5t-192 -89t-140.5 -146t-55.5 -204.5zM360 290 q0 126 83.5 183t194.5 59l6 -266q-41 -23 -92.5 -42t-100.5 -19q-91 0 -91 85z" />
<glyph unicode="b" horiz-adv-x="1097" d="M-50 108q0 345 9 689t9 689q0 140 65.5 219.5t215.5 79.5q73 0 149 -34t108 -107q79 -41 102.5 -115.5t23.5 -156.5q0 -50 -4.5 -102.5t-7.5 -102.5l47 3q138 0 224 -46.5t171 -143.5q18 -20 38.5 -35t37.5 -35q76 -85 108.5 -199t32.5 -225q0 -173 -25 -306 t-92.5 -222.5t-186 -136t-308.5 -46.5q-102 0 -208 32q-64 -26 -140 -26q-73 0 -145 32t-104 102q-120 58 -120 193zM59 108q0 -64 51 -90.5t107 -26.5q76 0 131 38q50 -20 104 -32t113 -12q167 0 266 38t152 114.5t69 189t16 261.5q0 97 -23.5 181.5t-73 150.5t-124.5 104 t-180 38q-67 0 -134.5 -17.5t-128.5 -49.5q3 143 7 283.5t4 283.5q0 32 -16 52.5t-40.5 35.5t-54 20.5t-55.5 5.5q-67 0 -114 -29t-56 -99q-10 -75 -10 -154q0 -20 1 -40q3 -100 3 -195q0 -266 -7 -525.5t-7 -525.5zM389 430q0 38 6 104t23.5 130.5t49.5 111t85 46.5 t89.5 -25t57 -63t29 -84.5t8.5 -90.5t-5.5 -110t-26 -127.5t-57.5 -105t-98 -43.5q-44 0 -74.5 27.5t-49.5 67t-28 83.5t-9 79zM603 357q15 41 19 86.5t7 88.5q-15 -44 -19 -87.5t-7 -87.5z" />
<glyph unicode="c" horiz-adv-x="1035" d="M-79 477q0 138 51 259t140.5 212t209.5 143.5t257 52.5q64 0 134.5 -13t136.5 -41t121.5 -69t93.5 -96q67 -47 111 -116t44 -154q0 -102 -73 -160.5t-173 -64.5q41 -15 73.5 -42.5t49.5 -68.5q50 -23 82 -68.5t32 -104.5q0 -56 -32 -111q-82 -138 -227 -197.5t-300 -59.5 q-117 0 -234 38t-204 117q-20 18 -35 38t-39 41q-111 99 -165 204.5t-54 260.5zM29 477q0 -114 39.5 -205t110 -153.5t165.5 -96.5t206 -34q61 0 125.5 10.5t123 34t107 63t77.5 97.5q6 15 12 29.5t6 29.5q0 26 -15 42t-37 28t-46.5 16t-45.5 4q-64 0 -100.5 -24.5 t-67.5 -55.5t-63 -56t-88 -25q-50 0 -83.5 34t-54 82t-29 102t-8.5 93q0 44 11.5 101t36.5 109.5t64.5 87.5t95.5 35q59 0 83.5 -29t45 -63t54 -63t106.5 -29q56 0 101 29t45 91q0 70 -45 122.5t-111 86.5t-139 50t-132 16q-114 0 -213.5 -44t-174 -121.5t-118.5 -178.5 t-44 -215zM573 386q0 -38 9 -79q35 32 61.5 58.5t54.5 44t63 29.5t87 12q-88 35 -140 120q-15 9 -26.5 17.5t-23.5 20.5q-20 -12 -36 -40t-28 -61.5t-16.5 -65.5t-4.5 -56z" />
<glyph unicode="d" horiz-adv-x="1158" d="M-79 424q0 135 48.5 262t133 228t203 162.5t262.5 61.5h45t45 -6q0 59 -1.5 119t-1.5 118q0 79 7.5 148t35.5 120t83.5 82t148.5 31q76 0 152.5 -32.5t108.5 -105.5q53 -26 86.5 -73t33.5 -105q0 -211 1.5 -417.5t1.5 -416.5q0 -140 -3 -282t-27 -283 q-18 -105 -89.5 -169.5t-179.5 -64.5q-79 0 -146 41q-73 -41 -152 -54t-161 -13q-99 0 -194.5 35t-165.5 105q-15 15 -29.5 32.5t-28.5 32.5q-18 18 -37 32t-34 32q-67 79 -106.5 178.5t-39.5 201.5zM29 424q0 -91 32.5 -169.5t88 -138.5t133 -95.5t168.5 -35.5 q88 0 172.5 19t154.5 78q23 -32 58.5 -49.5t73.5 -17.5q140 0 164 137q23 132 26 271t3 276q0 211 -1.5 418.5t-1.5 418.5q0 29 -17.5 49.5t-44 32.5t-55.5 17.5t-53 5.5q-108 0 -137 -61.5t-29 -154.5q0 -108 2.5 -213.5t2.5 -213.5v-12q-91 44 -201 44 q-120 0 -219.5 -52.5t-170 -137.5t-110 -195t-39.5 -221zM357 445q0 44 7.5 106.5t28 121t57 99.5t91.5 41q64 0 105.5 -49.5t66 -120t33.5 -145t9 -124.5q-35 -61 -96.5 -119.5t-137.5 -58.5q-47 0 -79 25t-51 61.5t-26.5 80.5t-7.5 82zM568 322q23 15 42 36.5t37 45.5 q-6 94 -30 175q-29 -47 -39 -115.5t-10 -121.5v-20z" />
<glyph unicode="e" horiz-adv-x="1085" d="M-79 500q0 138 61.5 255t159.5 203t223.5 134.5t257.5 48.5q102 0 212 -32t186 -103q20 -18 36.5 -38t33.5 -38q15 -15 28 -23.5t28 -22.5q61 -61 90.5 -140.5t29.5 -164.5q0 -73 -22 -150.5t-63 -138.5q76 -56 76 -152q0 -88 -63 -158.5t-153.5 -118.5t-190 -74.5 t-172.5 -26.5q-123 0 -246 39.5t-211 127.5q-18 18 -32 36.5t-35 39.5q-18 18 -37 32.5t-36 34.5q-79 88 -120 200.5t-41 229.5zM29 500q0 -117 41 -215t114 -168t172.5 -108t216.5 -38q120 0 243 48t196 145q15 18 25 36.5t10 42.5q0 26 -16 46.5t-39.5 33.5t-51 19 t-51.5 6q-50 0 -86 -25t-71.5 -55.5t-72 -55.5t-88.5 -25q-82 0 -138 60t-64 136h403q44 0 79 1.5t64.5 13.5t54.5 36.5t45 68.5q41 88 41 182q0 91 -38 156.5t-99.5 108t-139 63t-156.5 20.5q-108 0 -215 -41t-190 -111.5t-136 -168.5t-53 -212zM374 597q9 41 32.5 82 t55.5 73t73 52.5t85 20.5q59 0 91 -38t32 -94q0 -53 -26 -96h-343z" />
<glyph unicode="f" horiz-adv-x="1120" d="M-79 939q0 59 23.5 98.5t63 62.5t89 35t99.5 12q3 138 33.5 250.5t96.5 195.5t170 128.5t253 45.5q111 0 209 -41t160 -134q102 -67 144.5 -178.5t42.5 -228.5q0 -123 -111 -187q85 -59 85 -167q0 -73 -32.5 -115.5t-82 -63t-112.5 -26.5t-122 -6h-87q0 -167 4 -329 t4 -329q0 -56 -24.5 -97t-64 -67t-88 -39.5t-98.5 -13.5q-76 0 -149 31t-105 107q-105 50 -120 170q-15 135 -15 272v275v41q-50 15 -89 42.5t-60 77.5q-56 23 -86.5 70t-30.5 108zM29 939q0 -35 19 -55.5t47 -30.5t63 -13t67 -3h70v-331v-223.5t15 -221.5q9 -61 60 -83 t104 -22q23 0 52.5 6t54.5 19t42.5 35t17.5 51q0 193 -6 382t-6 382h135q18 0 42.5 -1.5t53.5 -1.5q35 0 73 4.5t67.5 14.5t48.5 32t19 57q0 50 -39.5 76.5t-86.5 26.5h-310q0 26 1.5 92t10 134.5t26.5 121t50 52.5t45 -20.5t20.5 -49.5t13.5 -64t20.5 -64.5t43.5 -50 t82 -20.5t99.5 31t46.5 89q0 167 -83 268t-259 101q-222 0 -333.5 -129t-111.5 -342q0 -38 -1.5 -74.5t-1.5 -74.5h-73q-26 0 -59.5 -1.5t-64.5 -10.5t-53 -29.5t-22 -58.5z" />
<glyph unicode="g" horiz-adv-x="1173" d="M-79 474q0 146 55.5 269t150.5 212t221 140.5t269 51.5q82 0 161 -18q88 64 193 65q70 0 133 -34t96 -98q61 -32 93 -87.5t32 -123.5q0 -243 -4 -484t-16 -484q-6 -158 -36.5 -298.5t-102.5 -246t-190.5 -168t-302.5 -62.5q-120 0 -240 42.5t-211 123.5q-20 18 -36 38.5 t-34 37.5q-53 53 -92.5 101.5t-68.5 101t-43.5 114t-14.5 137.5q0 88 51 151t133 86q-94 85 -145 196t-51 237zM29 474q0 -111 45.5 -200.5t120 -153.5t171 -98t202.5 -34q111 0 204 38q0 -44 -8.5 -127t-30.5 -165t-61.5 -143.5t-100.5 -61.5q-70 0 -110 30.5t-60.5 77.5 t-33.5 99.5t-30.5 99.5t-48.5 77.5t-92 30.5q-59 0 -107 -38t-48 -102q0 -108 42.5 -197.5t114 -152.5t165 -98t199.5 -35q161 0 262 53t159.5 145t81.5 213.5t29 258.5q9 243 15 481.5t6 481.5q0 64 -41 97.5t-103 33.5q-47 0 -89 -19t-72 -57q-91 29 -193 30 q-120 0 -226.5 -42.5t-187 -117t-127.5 -178.5t-47 -227zM357 474q0 59 14.5 121.5t45.5 115.5t79 86.5t115 33.5q47 0 89.5 -17.5t77.5 -44.5q3 -59 3 -117v-117t-6 -118.5t-27.5 -106.5t-64 -76t-118.5 -29q-56 0 -95.5 23.5t-64.5 61.5t-36.5 86t-11.5 98zM535 -211 q15 -35 23.5 -71.5t17.5 -71.5q23 32 35 64.5t21 67.5q-23 3 -48 4t-49 7zM568 369q0 -15 1.5 -26.5t3.5 -26.5q35 3 56 22t31 47t13 60t3 58t-1.5 52.5t-1.5 53.5q-59 -29 -82 -104t-23 -136z" />
<glyph unicode="h" horiz-adv-x="1161" d="M-50 135q0 76 4.5 149t7.5 146q6 211 7.5 417t1.5 414v175.5t23.5 166.5t82 126t175.5 50q73 0 144.5 -35t103.5 -103q82 -41 105.5 -118.5t23.5 -159.5q0 -50 -3 -101t-6 -100h15q105 0 210.5 -29.5t181.5 -105.5q15 -15 29.5 -34t28.5 -33q23 -23 45.5 -41t42.5 -41 q85 -102 113 -235.5t28 -262.5q0 -88 -6 -193t-36.5 -195.5t-96.5 -152t-186 -61.5q-67 0 -131.5 33.5t-96.5 100.5q-59 29 -91 82t-32 120q0 111 22 216.5t22 216.5q0 18 -1.5 35.5t-4.5 31.5q-44 -44 -57 -122.5t-14.5 -171t-4.5 -186t-28 -171t-83.5 -126t-169.5 -48.5 q-73 0 -142 36.5t-101 104.5q-59 32 -92.5 84.5t-33.5 120.5zM59 140q0 -67 45 -102t110 -35q91 0 128.5 64.5t47.5 153.5q8 69 9 141q0 22 -1 42q-1 31 -1 58q0 55 4 97q6 44 19 93.5t36.5 92t61.5 72t91 29.5t87.5 -31t55 -76.5t29.5 -98t9 -93.5q0 -102 -22 -201.5 t-22 -202.5q0 -70 32 -111t108 -41q61 0 111 31t68 92q9 32 16 83.5t11.5 105.5t7.5 106.5t3 87.5q0 120 -23.5 221t-79 175.5t-144.5 117t-221 42.5q-59 0 -117.5 -7t-116.5 -31q6 132 9 265t3 265q0 64 -51.5 95t-109.5 31q-61 0 -108 -28t-53 -95q-17 -158 -17 -320 q0 -32 1 -65q2 -111 2 -222q0 -83 -1 -166q-3 -158 -10 -316t-7 -319z" />
<glyph unicode="i" horiz-adv-x="456" d="M-59 1352q0 143 80.5 223.5t224.5 80.5q73 0 143 -35t103 -103q61 -32 93 -87.5t32 -122.5q0 -85 -24.5 -168.5t-103.5 -130.5l5 -11q50 -23 82.5 -66t32.5 -101q0 -111 -4.5 -222.5t-7.5 -222.5q-3 -91 -3 -181.5t-9 -181.5q-12 -114 -82 -182.5t-187 -68.5 q-70 0 -142 36.5t-104 103.5q-70 35 -95 88t-25 129v260q0 88 -1.5 175.5t-1.5 175.5q0 47 3 98t16.5 99.5t39.5 91t73 68.5l-3 9q-73 35 -104 102.5t-31 143.5zM50 1350q0 -165 169 -165q117 0 152.5 61.5t35.5 163.5q0 70 -47 104t-114 34q-196 0 -196 -198zM58 752 q0 -73 1 -143v-480q0 -76 42 -110t113 -34q73 0 114 39.5t46 110.5q18 199 21 399t3 399q0 26 -17.5 44t-42.5 29.5t-53 16t-48 4.5q-67 0 -114 -31t-56 -101q-9 -66 -9 -135v-8z" />
<glyph unicode="j" horiz-adv-x="792" d="M-284 -219q0 56 22 104t60 83t88 55.5t102 20.5q67 0 124.5 -31t89.5 -95q41 -18 67 -53q20 108 26 215t6 215q0 140 -4 276.5t-4 276.5q0 76 10 136t77 110l-11 21q-73 38 -105.5 108t-32.5 146q0 152 86.5 237t238.5 85q76 0 147.5 -33.5t106.5 -106.5q64 -32 96.5 -91 t32.5 -129q0 -85 -23.5 -171t-99.5 -136l3 -3q44 -20 70.5 -54t39.5 -73.5t16 -83t3 -87.5v-285.5t-6 -285.5q-3 -158 -20.5 -326t-77.5 -308.5t-178.5 -231.5t-323.5 -91q-97 0 -197.5 35.5t-170.5 105.5q-18 18 -34 36.5t-34 36.5q-44 44 -79 83.5t-59.5 80.5t-38 91 t-13.5 117zM-176 -219q0 -85 35.5 -152.5t94 -117t133 -76t153.5 -26.5q176 0 273.5 83.5t146 210.5t59 276.5t12.5 280.5q3 123 4.5 241.5t1.5 241.5q0 50 1 104q1 6 1 12q0 47 -11 86q-11 44 -46 71.5t-106 27.5q-105 0 -140 -43.5t-35 -143.5q0 -140 4.5 -280.5 t4.5 -281.5q0 -41 -3 -147.5t-18 -219t-44 -199t-85 -86.5q-73 0 -95 45.5t-35 101t-38 101t-104 45.5q-64 0 -114 -44t-50 -111zM339 1369q0 -181 188 -181q64 0 103.5 17.5t61.5 49.5t29.5 77.5t7.5 101.5q0 76 -51.5 112.5t-121.5 36.5q-217 0 -217 -214z" />
<glyph unicode="k" horiz-adv-x="1044" d="M-48 190q2 68 1 135v968q1 64 -1 127q0 9 -1 18q0 54 8 110q15 105 97 162t184 57q76 0 140.5 -33.5t99.5 -100.5q94 -50 118.5 -141t24.5 -184q0 -53 -4.5 -105.5t-4.5 -105.5q61 38 131.5 77.5t146.5 39.5q64 0 123 -33.5t85 -95.5q53 -23 85 -70t32 -105 q0 -64 -48 -125.5t-115.5 -114.5t-139 -96.5t-118.5 -76.5q76 -56 147.5 -114t139.5 -128q26 -29 52.5 -53t46.5 -48.5t32 -55.5t12 -78q0 -99 -73 -172t-173 -73q-47 0 -99.5 24.5t-103.5 60t-98 73.5t-82 67q-12 -120 -94 -177t-193 -57q-70 0 -137.5 29t-96.5 100 q-102 44 -117 161q-8 57 -8 115q1 9 1 19zM56 1380v-157q0 -263 2.5 -522t2.5 -523q0 -44 1.5 -81.5t15 -64t42.5 -41t85 -14.5q88 0 126 33q37 34 49 85q8 37 9 80q1 17 -1 34q-4 63 -5 122q35 -26 102.5 -82t143.5 -114.5t145 -102.5t104 -44q53 0 95 41t42 97 q0 32 -17.5 58.5t-40.5 49.5q-111 102 -235.5 184t-238.5 176q26 18 73 47t105.5 67t118.5 79t109.5 82t82 79t32.5 64q0 44 -35.5 69t-76.5 25q-35 0 -103.5 -35t-144.5 -80.5t-146.5 -91t-105.5 -68.5q3 167 9 329t6 326q0 79 -44 126t-123 47q-61 0 -112.5 -29.5 t-60.5 -93.5q-12 -73 -12 -150q1 -3 1 -6z" />
<glyph unicode="l" horiz-adv-x="468" d="M-50 149v525.5t3 525.5q2 44 1.5 88t-1.5 89q-1 18 -1 36q0 71 10 141q15 111 91 169.5t187 58.5q76 0 149 -35t108 -106q123 -64 123 -204q0 -357 -4.5 -711t-4.5 -714q0 -59 -24.5 -104.5t-65.5 -77.5t-94 -48t-105 -16q-76 0 -143.5 32t-99.5 103q-76 38 -102.5 103.5 t-26.5 144.5zM56 234q0 -50 1.5 -96.5t16 -82t48 -57t97.5 -21.5q29 0 61.5 8.5t59 26t44 44t17.5 61.5q0 357 4.5 711t4.5 714q0 67 -55.5 99.5t-114.5 32.5q-88 0 -126 -47t-50 -115q-8 -46 -8 -95q0 -23 2 -49q6 -78 6 -136q0 -252 -4 -500.5t-4 -497.5z" />
<glyph unicode="m" horiz-adv-x="1749" d="M-53 737q0 85 10.5 161t41 133t92 92.5t161.5 35.5q61 0 122.5 -23.5t96.5 -76.5q129 64 269 64q76 0 146.5 -21.5t128.5 -68.5q70 50 155 74.5t170 24.5q108 0 197.5 -41t150.5 -131q64 -44 106.5 -108.5t66 -137.5t34 -150.5t10.5 -150.5q0 -105 -13.5 -232.5 t-48.5 -227.5q-32 -94 -108 -134.5t-170 -40.5q-76 0 -156.5 33.5t-115.5 109.5l-29 18q-32 -82 -102.5 -126t-155.5 -44q-70 0 -135.5 35t-98.5 99q-61 32 -94.5 91t-33.5 129q0 56 3 108.5t8 107.5q-20 -85 -27.5 -185.5t-33.5 -187t-84.5 -145t-187.5 -58.5 q-76 0 -148 32t-104 106q-53 23 -85 70t-32 105q0 167 -3 330.5t-3 330.5zM58 774q0 -78 1 -154q0 -138 1 -272t1 -272q0 -29 16.5 -48t39.5 -31t51 -17.5t51 -5.5q53 0 100 22t61 77q18 61 26.5 125.5t17.5 127.5t20.5 126t35.5 124q9 26 26.5 64.5t41 73.5t52.5 60t61 25 q38 0 60 -31t34 -73.5t16 -86t4 -70.5q0 -105 -11.5 -209t-11.5 -206q0 -67 45.5 -105t106.5 -38q67 0 109.5 36.5t57.5 100.5q23 111 23 222.5t24 222.5q6 26 19 64t32 73t45.5 61.5t55.5 26.5q26 0 40.5 -20.5t22 -48.5t9 -57t1.5 -47q0 -184 -35 -365q-6 -35 -16.5 -72 t-10.5 -72q0 -32 19 -54t47 -35t59 -19t57 -6q56 0 104 20.5t68 79.5q32 94 44 209t12 215q0 88 -14.5 178.5t-54 163.5t-107 120t-175.5 47q-193 0 -331 -140q-50 67 -120 99t-149 32q-94 0 -184.5 -36.5t-160.5 -97.5v17q0 79 -29.5 115.5t-113.5 36.5q-59 0 -116 -27.5 t-66 -95.5q-12 -73 -12 -147v-6z" />
<glyph unicode="n" horiz-adv-x="1102" d="M-50 570.5v286.5q0 152 57 237t221 85q61 0 121.5 -20.5t101.5 -70.5q56 29 117 45.5t122 16.5q105 0 196 -44t153 -132q94 -67 143.5 -171t55.5 -215t11.5 -221t5.5 -221q0 -76 -10 -143t-41 -117t-88 -79t-148 -29q-73 0 -134.5 32t-93.5 99q-53 26 -86.5 74.5 t-42.5 107.5q-3 -70 -17.5 -131.5t-46.5 -105.5t-84.5 -69t-134.5 -25q-73 0 -145 32t-104 103q-99 47 -117 161q-9 59 -9 114v114q-3 143 -3 286.5zM53 872q0 -123 1.5 -246t1.5 -249q0 -73 1.5 -153.5t12.5 -153.5q9 -59 56 -79t96 -20q50 0 94 20.5t61 72.5q20 61 28 127 t10.5 133.5t8.5 133.5t27 130q9 23 27.5 62.5t43.5 76.5t54.5 63t58.5 26q20 0 32 -16t17.5 -38t8.5 -45.5t3 -37.5q12 -138 16.5 -272.5t4.5 -271.5q0 -67 39.5 -107t106.5 -40q64 0 101 19t54.5 53t21.5 79t4 98q0 111 -7 223.5t-13 224.5q-3 73 -26.5 137t-66 112.5 t-102.5 78t-139 29.5q-85 0 -162 -35.5t-139 -93.5q-6 85 -38 121.5t-123 36.5q-102 0 -138.5 -52.5t-36.5 -146.5z" />
<glyph unicode="o" horiz-adv-x="1135" d="M-79 530q0 91 28 185.5t82 172t133 127.5t181 50q76 38 159.5 60t168.5 22q94 0 186 -28t162 -92q20 -18 35 -40t35 -39q20 -18 41 -34t41 -39q79 -88 111.5 -206.5t32.5 -235.5q0 -155 -48.5 -275t-137.5 -203.5t-213.5 -127.5t-276.5 -44q-111 0 -219.5 35.5 t-193.5 111.5q-20 18 -36 38t-34 38q-20 20 -40.5 36.5t-41.5 39.5q-79 91 -117 209.5t-38 238.5zM29 530q0 -117 35 -215t99.5 -170t159.5 -111.5t212 -39.5q260 0 415.5 139t155.5 405q0 102 -26.5 193t-79 160t-134.5 108.5t-193 39.5q-50 0 -94 -13.5t-87.5 -28 t-86 -27.5t-89.5 -13q-67 0 -120 -47t-91 -113t-57 -139t-19 -128zM369 477q0 50 14.5 107t45 105t76 80.5t106.5 32.5q50 0 82.5 -25t51.5 -61.5t26 -80.5t7 -85q0 -50 -11.5 -110t-38 -111t-69 -86t-103.5 -35q-53 0 -88 26t-57 65.5t-32 86.5t-10 91zM579 348 q0 -12 3 -26q23 12 41 39.5t28 61t14.5 69t4.5 58.5l-3 23q-47 -32 -67.5 -88.5t-20.5 -112.5v-24z" />
<glyph unicode="p" horiz-adv-x="1173" d="M-50 951q0 111 77.5 171t180.5 60q67 0 130 -26.5t104 -78.5q67 32 138.5 43.5t145.5 11.5q99 0 194 -32t171 -99q15 -15 26.5 -31t26.5 -31q20 -18 42 -35.5t40 -37.5q70 -79 99.5 -191.5t29.5 -215.5q0 -167 -56 -298.5t-155.5 -223.5t-235.5 -143t-297 -57v-71 q0 -76 -8.5 -147.5t-38 -127t-85 -90.5t-148.5 -35q-76 0 -143.5 36.5t-102.5 103.5q-61 32 -95 89t-34 125q0 336 -3 666.5t-3 664.5zM59 951q0 -334 2.5 -664.5t2.5 -666.5q0 -67 50 -105.5t114 -38.5q79 0 117 48.5t50 115.5q10 54 10 113q0 15 -1 31q-3 76 -3 128v38 q18 0 35 -1.5t35 -1.5q143 0 266 39.5t214 118.5t142 194.5t51 265.5q0 202 -101 330.5t-317 128.5q-94 0 -180.5 -25t-162.5 -80q-6 79 -52.5 117t-122.5 38q-56 0 -102.5 -31t-46.5 -92zM404 155v35q0 67 1.5 172.5t23.5 206.5t74.5 172.5t151.5 71.5q50 0 81 -27.5 t48.5 -68.5t23 -86.5t5.5 -83.5q0 -88 -32 -161t-86 -124t-128.5 -79t-162.5 -28zM623 345q47 41 64.5 91t17.5 111l-3 26q-50 -44 -61.5 -105t-17.5 -123z" />
<glyph unicode="q" horiz-adv-x="1152" d="M-79 418q0 149 57 281t156.5 230t232.5 155t283 57q61 0 137 -14.5t150.5 -44t137.5 -72t95 -97.5q64 -41 99.5 -99.5t35.5 -134.5q0 -269 -35 -534t-68 -531q61 -32 88 -97q59 -23 91 -77t32 -116q0 -76 -49.5 -146t-123 -124.5t-156.5 -86.5t-154 -32q-76 0 -143 30.5 t-102 101.5q-85 41 -110 120t-25 163q0 228 9 463h-24q-94 0 -187 35t-161 96q-20 18 -34.5 37t-32.5 37t-37 32t-36 35q-59 67 -92.5 154.5t-33.5 178.5zM29 418q0 -85 32.5 -156.5t86.5 -124t127 -82t155 -29.5q64 0 127 7.5t122 30.5q-9 -178 -15 -355t-6 -359 q0 -94 29.5 -147.5t137.5 -53.5q47 0 111.5 23t123 62.5t99.5 89.5t41 103q0 41 -25 71.5t-69 30.5q-32 0 -70 -16t-71 -28q15 161 35.5 323.5t41 323.5t35 323t14.5 326q0 67 -49.5 114t-120 78t-145 45.5t-126.5 14.5q-129 0 -242 -48.5t-197.5 -132t-133 -194.5 t-48.5 -240zM360 421q0 61 19 131.5t57 130.5t93.5 98t128.5 38q108 0 109 -114q0 -61 -12 -143t-42.5 -154t-83.5 -123t-135 -51q-38 0 -64 17.5t-41 45.5t-22 61.5t-7 62.5zM582 401q20 23 30.5 52.5t19.5 58.5q-38 -50 -50 -111z" />
<glyph unicode="r" horiz-adv-x="874" d="M-53 294q3 80 3 142v529q0 56 23.5 98.5t61.5 71.5t86.5 44t97.5 15q59 0 117.5 -20.5t99.5 -67.5q50 20 102.5 32t108.5 12q82 0 166.5 -32.5t122.5 -113.5q56 -29 89.5 -77.5t33.5 -110.5q0 -50 -20.5 -90.5t-54 -68.5t-77.5 -44t-91 -16q-15 0 -31 1.5t-33 1.5 q-47 0 -77.5 -36.5t-49.5 -92.5t-27 -125q-6 -68 -8 -136q-1 -34 -1 -64q1 -30 1 -58q2 -56 1 -85q0 -120 -79 -183t-190 -63q-73 0 -137.5 33.5t-96.5 101.5q-64 32 -95 98t-40 145q-7 59 -7 119q0 20 1 40zM59 480q0 -97 1 -195t10 -191q6 -64 47 -95t102 -31q70 0 104 24 t47 60q12 33 12 75v11q-2 50 -2 102q0 70 4.5 168t31 189t80.5 153.5t154 62.5q15 0 32 -3t32 -3q50 0 91 29.5t41 82.5q0 35 -20.5 60t-51.5 38t-66 19t-61 6q-152 0 -273 -97v35q0 29 -14.5 48t-38 32.5t-51 19t-51.5 5.5q-56 0 -108 -28t-52 -92v-485z" />
<glyph unicode="s" horiz-adv-x="968" d="M-79 287q0 76 39.5 147.5t115.5 95.5q-41 50 -67.5 108t-26.5 126q0 114 51.5 194.5t132 133t181.5 77.5t197 25q97 0 199.5 -34t172.5 -104q15 -15 26.5 -31t25.5 -30q15 -15 29.5 -25t29.5 -25q44 -44 82 -118.5t38 -138.5q0 -67 -39.5 -120t-98.5 -85 q61 -59 102.5 -130.5t41.5 -156.5q0 -114 -57 -199t-146.5 -142t-196 -84.5t-203.5 -27.5q-129 0 -254.5 45t-201.5 156q-88 61 -130.5 151t-42.5 192zM29 287q0 -88 35 -152.5t95 -104t135 -58.5t154 -19q73 0 159 20.5t161 64.5t124.5 108.5t49.5 151.5q0 102 -74.5 174 t-164 127.5t-164 105.5t-74.5 105q0 67 67 68q67 0 92.5 -34t41.5 -74.5t39.5 -74.5t84.5 -34q50 0 98 32.5t48 90.5q0 73 -36.5 128.5t-93.5 93.5t-127 58.5t-135 20.5q-73 0 -153.5 -17.5t-146.5 -55.5t-109.5 -99.5t-43.5 -148.5q0 -64 36.5 -118.5t89 -98.5t117 -82 t117 -71.5t89 -67t36.5 -69.5q0 -20 -14.5 -36t-35 -28t-42.5 -17.5t-39 -5.5q-64 0 -93.5 41t-53 90.5t-54 90.5t-98.5 41q-59 0 -88 -47t-29 -99z" />
<glyph unicode="t" horiz-adv-x="1179" d="M-79 1044q0 111 79 167t181 56h9q6 82 16.5 158t41 133t90.5 92t159 35q70 0 134.5 -33.5t97.5 -97.5q61 -32 93 -86.5t32 -121.5q0 -64 -8 -126q50 -15 93.5 -45.5t64.5 -80.5q119 -56 119 -182q0 -66 -24.5 -105.5t-65.5 -63t-91 -32.5t-102 -9h-50 q-9 -73 -17.5 -144.5t-11.5 -144.5q32 35 59.5 73t58.5 67t70.5 48t94.5 19q67 0 127.5 -35t92.5 -96q59 -29 92.5 -85t33.5 -123q0 -102 -72 -190t-177 -152.5t-220.5 -101t-203.5 -36.5q-111 0 -210.5 41t-167.5 138q-64 44 -103.5 105t-63 133t-32 148t-8.5 149 q0 61 4 122.5t10 123.5q-35 15 -64 41t-44 64q-117 55 -117 178zM29 1044q0 -41 26.5 -62.5t64.5 -32t80.5 -13.5t71.5 -3q-9 -105 -20.5 -209t-11.5 -209q0 -97 14.5 -187.5t57 -159.5t114 -111t185.5 -42q64 0 161 29t187.5 79t155 117t64.5 143q0 59 -39.5 94t-95.5 35 q-53 0 -96.5 -45.5t-87.5 -101t-92 -101t-110 -45.5q-38 0 -60 32.5t-32 75t-13 87.5t-3 72q0 111 14.5 217.5t26.5 215.5q50 -3 96.5 -6t93.5 -3t89.5 26.5t42.5 78.5q0 50 -35 73.5t-83.5 32t-101 10t-84.5 1.5q9 79 22 158t13 158q0 64 -44 96.5t-103 32.5 q-88 0 -128.5 -44t-57 -108.5t-16.5 -139t-5 -135.5q-61 9 -126 9q-50 0 -92.5 -29.5t-42.5 -85.5z" />
<glyph unicode="u" horiz-adv-x="1100" d="M-50 445q0 56 6 133t17.5 160.5t26 159.5t32.5 126q32 85 101 120t154 35q76 0 152 -30.5t108 -106.5l62 -44q9 44 38 76t68.5 52.5t83.5 30.5t85 10q70 0 134.5 -30.5t96.5 -97.5q50 -23 77.5 -63t39.5 -92q13 -56 13 -113v-15q-1 -25 -1 -51q0 -39 2 -79q9 -255 9 -512 q0 -138 -71.5 -228.5t-218.5 -90.5q-85 0 -158 50q-70 -41 -149 -58.5t-158 -17.5q-105 0 -195.5 39.5t-152.5 127.5q-61 41 -100.5 99.5t-61.5 127t-31 140t-9 142.5zM59 445q0 -85 14.5 -168.5t51 -149.5t102.5 -106.5t168 -40.5q88 0 172.5 26t152.5 85q23 -41 61 -61.5 t79 -20.5q64 0 101 22t54.5 58.5t22 83t4.5 99.5q0 50 1 151q0 50 0.5 102.5t-0.5 106.5q-1 108 -5.5 203t-13.5 133q-15 53 -53 72t-87 19q-73 0 -110 -19q-36 -19 -48 -51q-10 -28 -11 -68q1 -5 1 -11q2 -47 1 -105q0 -61 -4.5 -161t-28 -195t-73 -163.5t-137.5 -68.5 q-32 0 -49.5 27.5t-26.5 64t-10.5 76t-1.5 60.5q0 94 7.5 184.5t27.5 183.5q9 41 20.5 79t11.5 79q0 29 -17.5 48.5t-42 31t-54 16t-52.5 4.5q-47 0 -92.5 -14.5t-59.5 -61.5q-18 -56 -32.5 -127.5t-25 -144.5t-14.5 -145t-4 -133z" />
<glyph unicode="v" horiz-adv-x="1029" d="M-108 916q0 56 27.5 96.5t71.5 68.5t96.5 41t99.5 13q73 0 134.5 -30.5t93.5 -98.5q67 -32 98 -92t55 -124q23 61 48 124t63 114.5t90.5 85t128.5 33.5q67 0 127 -35t93 -97q59 -29 91 -80t32 -119q0 -23 -20.5 -90.5t-54.5 -156.5t-73.5 -190t-77.5 -191.5t-70 -161 t-47 -96.5q-47 -82 -123 -120t-169 -38q-79 0 -151 33.5t-113 106.5q-35 20 -60 48t-45 60q-12 23 -42.5 92t-70 163t-80.5 199t-74.5 197.5t-55.5 159.5t-22 85zM0 916q0 -9 22 -72t57 -150.5t74.5 -190t77.5 -193.5t66 -156.5t37 -80.5q29 -50 70 -70.5t99 -20.5 q59 0 110 23.5t83 76.5q12 20 41.5 86t66 154t77.5 187.5t73 185.5t54 149t22 78q0 53 -39.5 85t-92.5 32q-59 0 -96.5 -35.5t-61.5 -84.5q-59 -120 -101 -241.5t-95 -241.5q-56 129 -104 265t-121 256q-23 41 -54 55.5t-78 14.5q-23 0 -55.5 -7.5t-61.5 -20.5t-49.5 -33.5 t-20.5 -49.5z" />
<glyph unicode="w" horiz-adv-x="1334" d="M-50 714q0 79 7.5 156.5t36.5 139t87.5 99.5t158.5 38q70 0 139 -33.5t101 -101.5q67 -35 102 -102q15 3 26.5 3h26.5q59 0 115.5 -23.5t97.5 -64.5v53q0 114 73.5 193t193.5 79q73 0 138.5 -35t101.5 -103q88 -50 111 -124.5t23 -167.5q0 -85 -1.5 -189t-14.5 -209 t-42.5 -203.5t-82 -176t-133 -124t-200.5 -46.5q-82 0 -158 26t-134 79q-110 -96 -249 -96h-3q-193 0 -301 160q-88 56 -132 149.5t-64.5 202t-22 219.5t-1.5 202zM58 750q0 -84 1 -168q0 -79 7 -180t38 -191.5t92 -153.5t170 -63q85 0 147.5 42.5t103.5 112.5 q50 -79 124.5 -123t168.5 -44q97 0 161 44t105 114.5t63 159.5t31 181t9 180v155q0 44 -6 85t-23.5 72t-50 50t-84.5 19q-73 0 -109 -38q-35 -38 -45 -94q-8 -43 -8 -90q0 -14 1 -28q3 -62 3 -113q0 -23 -1.5 -87.5t-9 -133.5t-25 -123t-49.5 -54t-47 52.5t-19 120.5 q-3 49 -3 95q1 18 1 35q2 63 1 83q0 67 -56 102.5t-114 35.5q-123 0 -161 -129q-6 -20 -6 -79t-3 -123t-13 -114t-37 -50q-18 0 -26.5 22t-12.5 51.5t-4 57v39.5q0 102 10 207.5t10 210.5q0 70 -42.5 105.5t-109.5 35.5q-61 0 -108 -29.5t-59 -93.5q-15 -79 -15 -160v-6z " />
<glyph unicode="x" horiz-adv-x="1135" d="M-79 910q0 56 23.5 101t63 78.5t89 53t102.5 19.5q56 0 105.5 -25t95 -63t86.5 -82t76 -82q38 38 77.5 80.5t83.5 79t93.5 60t108.5 23.5q70 0 140 -35t97 -103q56 -23 86.5 -70t30.5 -108q0 -50 -29.5 -104t-70.5 -107t-88 -98t-79 -80q35 -38 88 -92.5t101 -114.5 t82 -122.5t34 -118.5q0 -105 -77.5 -169.5t-180.5 -64.5q-64 0 -121 28t-107 68.5t-95.5 87.5t-85.5 88q-35 -44 -73.5 -95t-82 -93.5t-96.5 -70.5t-117 -28q-67 0 -134.5 34t-96.5 101q-117 56 -117 181q0 50 32 111.5t76 121.5t90.5 115.5t79.5 93.5q-35 35 -85 83.5 t-95.5 101t-77.5 108t-32 108.5zM29 910q0 -32 41 -87.5t95 -114t108.5 -111.5t80.5 -79q-23 -29 -76 -92t-105.5 -132t-92 -132t-39.5 -95q0 -53 45.5 -79t91.5 -26q50 0 101.5 41t99.5 96.5t90.5 115.5t71.5 95q32 -35 82 -92t107 -109.5t115.5 -92t111.5 -39.5 q56 0 102.5 33.5t46.5 94.5q0 38 -44 101t-101 129t-114 126t-86 89q23 26 74 79t102.5 111.5t91 114t39.5 84.5q0 56 -48.5 80.5t-94.5 24.5q-44 0 -95.5 -33.5t-101 -80t-95 -96.5t-77.5 -82q-29 29 -73 80.5t-94 99.5t-99.5 84.5t-90.5 36.5q-59 0 -114.5 -39.5 t-55.5 -103.5z" />
<glyph unicode="y" horiz-adv-x="1026" d="M-79 -266q0 102 71.5 160.5t168.5 64.5q-76 59 -118.5 152.5t-61.5 200t-23.5 215t-4.5 196.5v196q0 56 26.5 96.5t67.5 68.5t90.5 41t99.5 13q76 0 149 -32t106 -105l43 -30q29 85 104 127.5t160 42.5q73 0 146 -33.5t105 -103.5q61 -29 89 -82t37 -114q8 -53 8 -108 v-18q-2 -65 -2 -123q0 -111 -1.5 -253t-19 -290t-54 -291t-105.5 -254.5t-177 -178.5t-266 -67q-61 0 -131.5 16t-135 45t-121.5 70t-92 94q-70 50 -114 123t-44 161zM29 -266q0 -70 44 -126t108.5 -94t137.5 -58.5t134 -20.5q135 0 224.5 63t146.5 165.5t86 231t42 260.5 t14.5 256t1.5 215q0 73 2 146v24q0 61 -7 120q-9 64 -57.5 90.5t-106.5 26.5q-102 0 -134.5 -51.5t-32.5 -144.5v-83.5t-4.5 -129t-13 -147.5t-25 -139t-39.5 -102.5t-58 -39.5q-32 0 -51.5 47t-29.5 120t-13 160.5t-3 168t3 143.5t3 87q0 32 -16 52.5t-41 32t-54.5 17.5 t-52.5 6q-64 0 -99.5 -13t-53 -41t-20.5 -69t-3 -94v-163.5t7.5 -183t28 -181.5t63 -157.5t111.5 -109.5t174 -41q97 0 193 41q-3 -29 -17.5 -91t-38 -123t-56 -108t-67.5 -47q-67 0 -95 32t-47 68.5t-46.5 69t-97.5 32.5q-53 0 -98.5 -29.5t-45.5 -87.5z" />
<glyph unicode="z" horiz-adv-x="997" d="M-79 120q0 53 35 121.5t83.5 137.5t98 131.5t81.5 109.5q-44 15 -80.5 45.5t-53.5 71.5q-53 26 -86.5 73t-33.5 109q0 67 30.5 108t76 64.5t102.5 32t110 8.5h295q50 0 111.5 -3t121.5 -19t109.5 -46.5t73.5 -83.5q50 -26 83.5 -73t33.5 -105q0 -41 -35 -108.5 t-82 -137.5t-95.5 -136t-74.5 -104q70 -6 136 -38t98 -100q53 -23 86.5 -71t33.5 -110q0 -82 -49.5 -127.5t-123 -67t-152.5 -26t-137 -4.5h-319q-53 0 -105.5 4.5t-101 20.5t-86.5 43.5t-61 74.5q-59 29 -91 83.5t-32 121.5zM29 120q0 -44 22 -70.5t57 -41t79 -19t88 -4.5 q38 0 71.5 1.5t57.5 1.5h120q76 0 150.5 3t150.5 9q44 6 93.5 26.5t49.5 75.5q0 29 -16 48.5t-39.5 32.5t-51 19t-51.5 6q-91 0 -180 -6t-179 -6h-15q111 155 212 313t215 307q15 20 26.5 42.5t11.5 45.5q0 44 -42.5 69t-99.5 36.5t-114 13t-86 1.5h-272q-38 0 -76 -4.5 t-69 -14.5t-50 -30.5t-19 -55.5q0 -38 31 -61.5t74.5 -35.5t96.5 -14.5t97 -2.5h96q-99 -146 -198.5 -289.5t-202.5 -287.5q-38 -53 -38 -108z" />
<glyph unicode="&#x2000;" horiz-adv-x="907" />
<glyph unicode="&#x2001;" horiz-adv-x="1814" />
<glyph unicode="&#x2002;" horiz-adv-x="907" />
<glyph unicode="&#x2003;" horiz-adv-x="1814" />
<glyph unicode="&#x2004;" horiz-adv-x="604" />
<glyph unicode="&#x2005;" horiz-adv-x="453" />
<glyph unicode="&#x2006;" horiz-adv-x="302" />
<glyph unicode="&#x2007;" horiz-adv-x="302" />
<glyph unicode="&#x2008;" horiz-adv-x="226" />
<glyph unicode="&#x2009;" horiz-adv-x="362" />
<glyph unicode="&#x200a;" horiz-adv-x="100" />
<glyph unicode="&#x202f;" horiz-adv-x="362" />
<glyph unicode="&#x205f;" horiz-adv-x="453" />
<glyph unicode="&#x25fc;" horiz-adv-x="1155" d="M0 0v1156h1156v-1156h-1156z" />
</font>
</defs>
</svg>
